<svg xmlns="http://www.w3.org/2000/svg" xmlns:xlink="http://www.w3.org/1999/xlink" width="1366" zoomAndPan="magnify" viewBox="0 0 1024.5 794.24998" height="768" preserveAspectRatio="xMidYMid meet" version="1.0"><defs><g/><clipPath id="d5081af4b2"><path d="M 34.171875 0 L 989.519531 0 L 989.519531 618.832031 L 34.171875 618.832031 Z M 34.171875 0 " clip-rule="nonzero"/></clipPath><clipPath id="cbd1604d2f"><path d="M 265.023438 121.199219 L 758.808594 121.199219 L 758.808594 564.78125 L 265.023438 564.78125 Z M 265.023438 121.199219 " clip-rule="nonzero"/></clipPath><clipPath id="fbb5b4f5b9"><path d="M 289.085938 39.703125 L 722.980469 39.703125 L 722.980469 114.25 L 289.085938 114.25 Z M 289.085938 39.703125 " clip-rule="nonzero"/></clipPath><clipPath id="3803ec675d"><path d="M 307.070312 39.703125 L 704.722656 39.703125 C 714.65625 39.703125 722.707031 47.753906 722.707031 57.683594 L 722.707031 96.265625 C 722.707031 106.199219 714.65625 114.25 704.722656 114.25 L 307.070312 114.25 C 297.136719 114.25 289.085938 106.199219 289.085938 96.265625 L 289.085938 57.683594 C 289.085938 47.753906 297.136719 39.703125 307.070312 39.703125 Z M 307.070312 39.703125 " clip-rule="nonzero"/></clipPath><clipPath id="559b3dfcf7"><path d="M 710.242188 546.363281 L 730.816406 546.363281 L 730.816406 573.660156 L 710.242188 573.660156 Z M 710.242188 546.363281 " clip-rule="nonzero"/></clipPath><clipPath id="53a6e63993"><path d="M 715.285156 566.539062 C 720.828125 561.820312 720.976562 561.445312 721.503906 560.472656 C 722.476562 558.597656 725.25 553.953125 725.625 551.703125 C 725.921875 550.355469 725.097656 549.304688 725.324219 548.40625 C 725.472656 547.734375 725.847656 547.132812 726.371094 546.910156 C 727.046875 546.535156 728.695312 546.457031 729.371094 546.910156 C 730.042969 547.28125 730.417969 548.03125 730.570312 549.082031 C 730.792969 551.105469 728.996094 556.425781 728.019531 558.972656 C 727.347656 560.769531 726.824219 561.746094 725.847656 563.167969 C 724.574219 565.117188 722.476562 567.738281 720.527344 569.460938 C 718.730469 570.960938 716.332031 572.382812 714.757812 572.984375 C 713.785156 573.285156 712.886719 573.582031 712.210938 573.207031 C 711.460938 572.835938 710.488281 571.261719 710.488281 570.363281 C 710.5625 569.613281 711.386719 568.636719 711.988281 568.261719 C 712.4375 567.964844 713.109375 567.8125 713.710938 567.964844 C 714.382812 568.1875 715.433594 568.863281 715.734375 569.539062 C 716.03125 570.210938 716.03125 571.484375 715.582031 572.085938 C 715.058594 572.835938 713.335938 573.507812 712.511719 573.359375 C 711.761719 573.207031 710.9375 572.234375 710.636719 571.558594 C 710.414062 571.035156 710.339844 570.4375 710.636719 569.835938 C 711.386719 568.339844 716.332031 566.316406 718.128906 564.59375 C 719.40625 563.316406 720.078125 562.34375 720.976562 560.84375 C 722.101562 558.972656 723.300781 556.425781 724.125 554.175781 C 724.800781 552.078125 724.800781 549.082031 725.546875 547.808594 C 725.921875 547.132812 726.371094 546.757812 726.972656 546.609375 C 727.648438 546.382812 728.769531 546.457031 729.371094 546.910156 C 730.042969 547.359375 730.417969 548.332031 730.492188 549.304688 C 730.71875 550.578125 730.34375 552.152344 729.894531 553.875 C 729.144531 556.425781 727.273438 560.472656 725.847656 562.71875 C 724.875 564.367188 723.976562 565.339844 722.703125 566.539062 C 721.203125 568.039062 718.582031 570.210938 717.230469 570.660156 C 716.632812 570.8125 716.109375 570.8125 715.65625 570.585938 C 715.207031 570.363281 714.683594 569.910156 714.460938 569.460938 C 714.234375 569.011719 714.160156 568.339844 714.308594 567.890625 C 714.460938 567.363281 715.285156 566.539062 715.285156 566.539062 " clip-rule="nonzero"/></clipPath><clipPath id="a0c56ee70e"><path d="M 282.472656 545.269531 L 309.785156 545.269531 L 309.785156 572 L 282.472656 572 Z M 282.472656 545.269531 " clip-rule="nonzero"/></clipPath><clipPath id="48ce55cd2b"><path d="M 301.972656 571.636719 C 293.730469 567.363281 290.882812 564.59375 289.160156 562.042969 C 287.660156 559.570312 286.164062 555.976562 286.164062 554.101562 C 286.089844 553.050781 286.464844 552.304688 286.914062 551.777344 C 287.363281 551.328125 288.035156 551.105469 288.636719 551.03125 C 289.234375 551.03125 289.761719 551.179688 290.433594 551.703125 C 292.082031 552.976562 293.957031 559.195312 296.878906 561.667969 C 299.875 564.140625 306.621094 564.441406 308.34375 566.390625 C 309.316406 567.4375 309.691406 569.011719 309.316406 569.910156 C 309.015625 570.8125 307.816406 571.710938 306.621094 571.859375 C 304.894531 572.011719 301.675781 569.988281 299.800781 568.863281 C 298.152344 567.890625 297.027344 566.988281 295.753906 565.789062 C 294.179688 564.367188 292.457031 562.570312 291.035156 560.695312 C 289.535156 558.671875 287.660156 555.601562 287.0625 553.953125 C 286.6875 553.050781 286.613281 552.453125 286.6875 551.777344 C 286.835938 551.179688 287.289062 550.503906 287.738281 550.128906 C 288.261719 549.753906 289.085938 549.53125 289.683594 549.605469 C 290.285156 549.605469 290.957031 549.90625 291.410156 550.429688 C 292.234375 551.328125 293.207031 554.175781 292.980469 555.300781 C 292.832031 555.976562 292.234375 556.5 291.707031 556.800781 C 291.183594 557.097656 290.359375 557.175781 289.761719 557.097656 C 289.160156 556.949219 288.410156 556.574219 288.113281 555.976562 C 287.738281 555.300781 288.710938 553.503906 288.261719 552.902344 C 287.8125 552.378906 286.6875 552.679688 285.863281 552.226562 C 284.890625 551.703125 283.390625 550.429688 282.941406 549.382812 C 282.640625 548.558594 282.566406 547.433594 283.015625 546.757812 C 283.539062 546.085938 285.1875 545.335938 286.089844 545.484375 C 286.835938 545.558594 287.738281 546.457031 288.035156 547.207031 C 288.261719 547.882812 288.113281 549.15625 287.660156 549.753906 C 287.210938 550.355469 286.089844 550.878906 285.339844 550.878906 C 284.589844 550.878906 283.464844 550.28125 283.089844 549.605469 C 282.714844 548.855469 282.792969 546.984375 283.390625 546.308594 C 283.992188 545.632812 285.5625 545.410156 286.613281 545.710938 C 288.035156 545.933594 289.835938 547.359375 290.957031 548.632812 C 292.007812 549.90625 292.90625 551.855469 293.058594 553.203125 C 293.132812 554.402344 292.832031 555.75 292.234375 556.425781 C 291.78125 556.875 291.035156 557.097656 290.433594 557.175781 C 289.835938 557.175781 289.085938 556.949219 288.5625 556.5 C 287.738281 555.75 286.761719 553.425781 286.6875 552.453125 C 286.613281 551.929688 286.6875 551.554688 286.914062 551.105469 C 287.210938 550.65625 287.738281 549.980469 288.335938 549.753906 C 289.011719 549.53125 289.984375 549.457031 290.882812 549.980469 C 293.132812 551.253906 295.902344 558.371094 298.902344 561.371094 C 301.523438 563.84375 307.367188 565.417969 307.445312 567.066406 C 307.445312 568.1875 305.269531 569.761719 303.695312 569.988281 C 301.375 570.285156 296.503906 567.515625 294.480469 566.316406 C 293.429688 565.714844 293.058594 565.417969 292.234375 564.515625 C 291.035156 563.167969 289.308594 560.472656 288.1875 558.597656 C 287.363281 557.023438 286.164062 555.375 286.164062 554.101562 C 286.089844 553.203125 286.464844 552.304688 286.914062 551.777344 C 287.363281 551.328125 288.035156 551.105469 288.636719 551.03125 C 289.234375 551.03125 289.910156 551.179688 290.433594 551.703125 C 291.484375 552.679688 292.234375 557.097656 293.132812 558.671875 C 293.582031 559.570312 293.957031 559.796875 294.628906 560.546875 C 295.753906 561.894531 297.703125 564.441406 299.425781 565.714844 C 301 566.839844 303.695312 567.066406 304.371094 568.113281 C 304.894531 568.863281 304.820312 570.136719 304.371094 570.734375 C 303.996094 571.335938 301.972656 571.636719 301.972656 571.636719 " clip-rule="nonzero"/></clipPath><clipPath id="8036dd5b88"><path d="M 286.511719 544 L 300.492188 544 L 300.492188 570.628906 L 286.511719 570.628906 Z M 286.511719 544 " clip-rule="nonzero"/></clipPath><clipPath id="f82cf6d097"><path d="M 291.410156 546.308594 C 295.679688 560.695312 300.476562 565.941406 300.398438 568.113281 C 300.398438 569.011719 299.800781 569.761719 299.277344 570.0625 C 298.675781 570.4375 297.550781 570.585938 296.953125 570.210938 C 296.277344 569.835938 295.53125 568.414062 295.53125 567.589844 C 295.605469 566.914062 296.355469 566.089844 296.953125 565.789062 C 297.550781 565.492188 298.675781 565.566406 299.203125 565.867188 C 299.800781 566.242188 300.476562 567.140625 300.398438 567.8125 C 300.398438 568.636719 299.5 569.988281 298.75 570.285156 C 298.152344 570.585938 297.328125 570.511719 296.503906 569.910156 C 294.554688 568.636719 291.183594 562.34375 289.683594 559.046875 C 288.5625 556.722656 288.035156 554.777344 287.585938 552.527344 C 287.136719 550.355469 286.539062 547.132812 286.914062 545.785156 C 287.0625 545.109375 287.4375 544.734375 287.8125 544.4375 C 288.261719 544.136719 288.9375 543.984375 289.386719 544.0625 C 289.910156 544.136719 290.507812 544.4375 290.808594 544.808594 C 291.183594 545.183594 291.410156 546.308594 291.410156 546.308594 " clip-rule="nonzero"/></clipPath><clipPath id="36ce0bda9b"><path d="M 722.734375 546.21875 L 730.359375 546.21875 L 730.359375 561.46875 L 722.734375 561.46875 Z M 722.734375 546.21875 " clip-rule="nonzero"/></clipPath><clipPath id="637a42c563"><path d="M 723.074219 558.074219 C 725.398438 553.050781 724.722656 549.53125 725.324219 548.105469 C 725.699219 547.28125 726.371094 546.683594 726.972656 546.457031 C 727.496094 546.234375 728.097656 546.234375 728.546875 546.457031 C 729.21875 546.832031 730.195312 548.183594 730.195312 549.007812 C 730.195312 549.679688 729.59375 550.65625 728.996094 550.953125 C 728.246094 551.328125 726.597656 551.105469 726 550.578125 C 725.472656 550.128906 725.097656 549.007812 725.324219 548.332031 C 725.472656 547.582031 726.746094 546.457031 727.496094 546.382812 C 728.171875 546.234375 729.21875 546.757812 729.667969 547.28125 C 730.042969 547.65625 730.121094 548.03125 730.195312 548.707031 C 730.34375 550.128906 729.96875 553.503906 729.445312 555.375 C 728.996094 557.023438 728.097656 558.523438 727.496094 559.570312 C 727.121094 560.246094 726.824219 560.84375 726.296875 561.070312 C 725.773438 561.371094 724.722656 561.445312 724.199219 561.296875 C 723.675781 561.070312 723.226562 560.621094 723 560.171875 C 722.777344 559.570312 723.074219 558.074219 723.074219 558.074219 " clip-rule="nonzero"/></clipPath><clipPath id="cf2ad856f3"><path d="M 725.316406 547.5625 L 731.351562 547.5625 L 731.351562 556.679688 L 725.316406 556.679688 Z M 725.316406 547.5625 " clip-rule="nonzero"/></clipPath><clipPath id="fbc643d1d4"><path d="M 731.316406 550.128906 C 728.769531 556.648438 727.273438 556.5 726.671875 556.125 C 726.074219 555.75 725.699219 554.777344 725.773438 554.175781 C 725.773438 553.503906 726.371094 552.601562 726.898438 552.304688 C 727.273438 552.003906 727.796875 551.855469 728.320312 551.929688 C 728.921875 552.078125 729.820312 552.601562 730.121094 553.203125 C 730.417969 553.726562 730.417969 554.777344 730.121094 555.375 C 729.820312 555.898438 728.996094 556.574219 728.320312 556.574219 C 727.570312 556.574219 726.296875 555.976562 725.921875 555.152344 C 725.324219 553.875 726.371094 550.429688 726.898438 549.15625 C 727.195312 548.558594 727.421875 548.183594 727.945312 547.957031 C 728.472656 547.65625 729.519531 547.582031 730.042969 547.882812 C 730.644531 548.257812 731.316406 550.128906 731.316406 550.128906 " clip-rule="nonzero"/></clipPath><clipPath id="570eec2fc7"><path d="M 711.027344 547 L 729.632812 547 L 729.632812 571.5 L 711.027344 571.5 Z M 711.027344 547 " clip-rule="nonzero"/></clipPath><clipPath id="55b4d86858"><path d="M 729.59375 549.382812 C 726.296875 560.546875 724.425781 564.140625 722.703125 566.164062 C 721.425781 567.664062 720.078125 568.636719 718.730469 569.460938 C 717.382812 570.285156 715.734375 571.109375 714.535156 571.1875 C 713.636719 571.261719 712.660156 571.109375 712.136719 570.660156 C 711.535156 570.210938 711.085938 569.085938 711.238281 568.339844 C 711.386719 567.515625 712.585938 566.242188 713.410156 566.089844 C 714.160156 565.867188 715.285156 566.316406 715.734375 566.839844 C 716.257812 567.363281 716.558594 568.5625 716.40625 569.238281 C 716.257812 569.988281 715.507812 570.886719 714.757812 571.109375 C 714.085938 571.410156 712.960938 571.261719 712.359375 570.8125 C 711.761719 570.4375 711.164062 569.386719 711.164062 568.636719 C 711.164062 567.890625 711.6875 567.066406 712.359375 566.464844 C 713.335938 565.640625 715.507812 565.492188 716.78125 564.667969 C 718.054688 563.769531 719.105469 562.570312 720.152344 561.070312 C 721.425781 559.347656 722.550781 556.875 723.449219 554.699219 C 724.351562 552.453125 724.5 548.855469 725.625 547.808594 C 726.296875 547.132812 727.496094 546.984375 728.171875 547.207031 C 728.84375 547.507812 729.59375 549.382812 729.59375 549.382812 " clip-rule="nonzero"/></clipPath><clipPath id="fc9041a3b2"><path d="M 727.34375 150.53125 L 747.65625 150.53125 L 747.65625 187.5 L 727.34375 187.5 Z M 727.34375 150.53125 " clip-rule="nonzero"/></clipPath><clipPath id="7d68d9f6c2"><path d="M 732.667969 151.582031 C 737.835938 161.023438 737.613281 161.773438 737.3125 162.296875 C 736.9375 162.820312 736.339844 163.121094 735.8125 163.269531 C 735.214844 163.347656 734.691406 163.269531 734.015625 162.972656 C 732.816406 162.296875 730.492188 159.597656 729.667969 158.25 C 729.144531 157.5 728.84375 156.976562 728.769531 156.226562 C 728.769531 155.402344 729.144531 153.980469 729.667969 153.457031 C 730.042969 153.003906 730.792969 152.855469 731.394531 152.929688 C 731.992188 152.929688 732.441406 153.082031 733.042969 153.605469 C 734.765625 155.105469 739.335938 162.445312 740.160156 164.621094 C 740.460938 165.445312 740.609375 165.96875 740.460938 166.492188 C 740.308594 167.09375 739.933594 167.765625 739.410156 168.066406 C 738.8125 168.441406 737.761719 168.742188 736.9375 168.441406 C 735.8125 168.140625 734.613281 166.492188 733.566406 165.292969 C 732.367188 164.09375 731.316406 162.820312 730.34375 161.246094 C 729.296875 159.523438 727.570312 157.050781 727.496094 155.402344 C 727.496094 154.28125 727.945312 153.003906 728.695312 152.554688 C 729.371094 152.105469 730.71875 151.957031 731.769531 152.632812 C 734.015625 153.980469 736.5625 160.648438 738.960938 165.367188 C 741.808594 170.988281 747.578125 180.730469 747.429688 184.25 C 747.429688 185.601562 746.679688 186.722656 745.929688 187.097656 C 745.105469 187.472656 743.382812 186.949219 742.78125 186.347656 C 742.332031 185.972656 742.109375 185.375 742.109375 184.777344 C 742.109375 184.101562 742.707031 182.976562 743.15625 182.527344 C 743.605469 182.152344 744.28125 181.929688 744.804688 182.003906 C 745.480469 182.003906 746.605469 182.601562 747.054688 183.203125 C 747.429688 183.652344 747.578125 184.25 747.503906 184.851562 C 747.351562 185.523438 746.753906 186.574219 746.152344 186.949219 C 745.703125 187.324219 745.03125 187.472656 744.503906 187.324219 C 743.832031 187.171875 743.230469 186.875 742.40625 185.898438 C 739.335938 182.378906 728.171875 159.523438 727.496094 155.402344 C 727.347656 154.429688 727.496094 154.054688 727.796875 153.53125 C 728.097656 153.003906 728.621094 152.40625 729.21875 152.257812 C 730.042969 152.105469 731.316406 152.332031 732.21875 153.082031 C 733.492188 154.054688 733.941406 156.902344 735.214844 158.773438 C 736.5625 160.796875 739.484375 163.121094 740.160156 164.621094 C 740.535156 165.367188 740.609375 165.96875 740.460938 166.492188 C 740.308594 167.09375 739.859375 167.765625 739.410156 168.066406 C 738.960938 168.441406 738.210938 168.664062 737.613281 168.589844 C 737.011719 168.515625 736.5625 168.367188 735.890625 167.765625 C 734.164062 166.191406 729.144531 158.851562 728.769531 156.226562 C 728.621094 155.027344 728.996094 153.980469 729.667969 153.457031 C 730.269531 152.929688 731.617188 152.855469 732.59375 153.230469 C 734.164062 153.980469 736.863281 157.726562 737.386719 159.523438 C 737.761719 160.574219 737.6875 161.699219 737.3125 162.296875 C 737.011719 162.820312 736.339844 163.195312 735.8125 163.269531 C 735.140625 163.347656 734.316406 163.195312 733.566406 162.597656 C 731.992188 161.324219 729.144531 155.628906 728.621094 153.828125 C 728.472656 153.082031 728.472656 152.632812 728.621094 152.179688 C 728.769531 151.65625 729.21875 151.207031 729.667969 150.90625 C 730.121094 150.683594 730.792969 150.609375 731.316406 150.683594 C 731.769531 150.832031 732.667969 151.582031 732.667969 151.582031 " clip-rule="nonzero"/></clipPath><clipPath id="f0095b7b15"><path d="M 719.289062 115.542969 L 735.894531 115.542969 L 735.894531 136 L 719.289062 136 Z M 719.289062 115.542969 " clip-rule="nonzero"/></clipPath><clipPath id="d33b5524d2"><path d="M 722.328125 115.617188 C 730.417969 120.710938 731.242188 121.835938 732.140625 123.558594 C 733.566406 126.03125 735.8125 131.199219 735.738281 133.300781 C 735.664062 134.273438 735.214844 135.023438 734.613281 135.472656 C 734.015625 135.921875 732.890625 135.996094 732.21875 135.773438 C 731.542969 135.546875 730.71875 134.648438 730.570312 133.898438 C 730.417969 133.222656 730.644531 132.101562 731.167969 131.574219 C 731.769531 130.976562 733.566406 130.675781 734.316406 130.976562 C 734.988281 131.277344 735.589844 132.324219 735.738281 133 C 735.8125 133.75 735.363281 134.796875 734.839844 135.320312 C 734.316406 135.773438 733.117188 136.070312 732.441406 135.847656 C 731.769531 135.695312 731.167969 135.023438 730.644531 134.199219 C 729.667969 132.699219 729.144531 129.101562 728.246094 127.078125 C 727.496094 125.507812 727.046875 124.15625 725.847656 122.957031 C 724.425781 121.460938 720.453125 120.410156 719.703125 118.988281 C 719.328125 118.164062 719.40625 116.964844 719.855469 116.441406 C 720.304688 115.839844 722.328125 115.617188 722.328125 115.617188 " clip-rule="nonzero"/></clipPath><clipPath id="c1d5ec2470"><path d="M 291.691406 115.074219 L 296.21875 115.074219 L 296.21875 119.753906 L 291.691406 119.753906 Z M 291.691406 115.074219 " clip-rule="nonzero"/></clipPath><clipPath id="bba984d71e"><path d="M 296.203125 116.664062 C 294.253906 119.738281 292.53125 119.136719 292.082031 118.539062 C 291.707031 117.863281 292.082031 116.066406 292.683594 115.539062 C 293.207031 115.089844 295.605469 115.765625 295.605469 115.765625 " clip-rule="nonzero"/></clipPath><clipPath id="f3b83eefe5"><path d="M 283.683594 115.109375 L 298.789062 115.109375 L 298.789062 135.40625 L 283.683594 135.40625 Z M 283.683594 115.109375 " clip-rule="nonzero"/></clipPath><clipPath id="8239719216"><path d="M 296.652344 119.886719 C 292.457031 121.011719 291.859375 121.460938 291.257812 122.285156 C 290.507812 123.410156 289.984375 125.355469 289.535156 127.15625 C 289.011719 129.328125 289.460938 133.222656 288.785156 134.421875 C 288.410156 134.949219 287.960938 135.171875 287.363281 135.246094 C 286.761719 135.398438 285.5625 135.246094 285.113281 134.722656 C 284.515625 134.125 284.214844 132.476562 284.515625 131.726562 C 284.738281 131.050781 285.714844 130.453125 286.386719 130.300781 C 287.136719 130.226562 288.1875 130.601562 288.636719 131.125 C 289.085938 131.652344 289.460938 132.773438 289.234375 133.449219 C 289.011719 134.199219 287.660156 135.320312 286.835938 135.320312 C 286.011719 135.398438 284.816406 134.496094 284.363281 133.597656 C 283.691406 132.25 284.066406 129.777344 284.515625 127.605469 C 285.039062 124.757812 286.761719 120.035156 288.113281 118.3125 C 288.859375 117.414062 289.386719 117.1875 290.359375 116.738281 C 291.859375 116.066406 295.53125 115.167969 296.878906 115.390625 C 297.550781 115.464844 297.925781 115.765625 298.226562 116.214844 C 298.601562 116.589844 298.75 117.1875 298.75 117.714844 C 298.75 118.238281 298.453125 118.835938 298.152344 119.210938 C 297.777344 119.585938 296.652344 119.886719 296.652344 119.886719 " clip-rule="nonzero"/></clipPath><clipPath id="db0336bac9"><path d="M 711.828125 560.585938 L 725.96875 560.585938 L 725.96875 570.667969 L 711.828125 570.667969 Z M 711.828125 560.585938 " clip-rule="nonzero"/></clipPath><clipPath id="1f9ff57b17"><path d="M 713.933594 566.015625 C 724.425781 560.769531 725.398438 561.820312 725.699219 562.492188 C 725.921875 563.019531 725.847656 563.617188 725.625 564.066406 C 725.324219 564.667969 724.5 565.492188 723.824219 565.566406 C 723.074219 565.640625 721.578125 564.890625 721.128906 564.292969 C 720.828125 563.691406 720.828125 562.570312 721.203125 561.96875 C 721.652344 561.296875 723.152344 560.621094 723.898438 560.769531 C 724.574219 560.84375 725.472656 561.59375 725.625 562.269531 C 725.847656 563.019531 725.472656 564.140625 724.800781 565.117188 C 723.675781 566.691406 719.703125 568.9375 717.980469 569.6875 C 717.007812 570.136719 716.40625 570.285156 715.582031 570.4375 C 714.910156 570.511719 714.085938 570.660156 713.484375 570.4375 C 712.886719 570.136719 712.210938 569.460938 712.0625 568.863281 C 711.835938 568.261719 712.136719 567.289062 712.511719 566.765625 C 712.8125 566.390625 713.933594 566.015625 713.933594 566.015625 " clip-rule="nonzero"/></clipPath><clipPath id="eeb5fc1f14"><path d="M 711.429688 562.617188 L 723.976562 562.617188 L 723.976562 569.992188 L 711.429688 569.992188 Z M 711.429688 562.617188 " clip-rule="nonzero"/></clipPath><clipPath id="fc96de4071"><path d="M 713.484375 565.265625 C 722.101562 562.644531 723.226562 563.09375 723.601562 563.769531 C 723.976562 564.441406 723.675781 566.089844 723.226562 566.691406 C 722.777344 567.214844 721.652344 567.515625 721.054688 567.289062 C 720.304688 567.066406 719.253906 565.867188 719.105469 565.117188 C 719.03125 564.441406 719.480469 563.46875 720.003906 563.09375 C 720.679688 562.644531 722.328125 562.71875 722.925781 563.019531 C 723.375 563.242188 723.75 563.769531 723.824219 564.292969 C 723.976562 564.890625 723.898438 565.789062 723.375 566.464844 C 722.25 567.8125 717.382812 569.3125 715.433594 569.6875 C 714.382812 569.910156 713.558594 569.988281 712.960938 569.6875 C 712.4375 569.539062 711.910156 569.085938 711.761719 568.636719 C 711.460938 568.039062 711.460938 567.066406 711.761719 566.464844 C 712.0625 565.941406 713.484375 565.265625 713.484375 565.265625 " clip-rule="nonzero"/></clipPath><clipPath id="259e6e8449"><path d="M 716.011719 562.222656 L 724.765625 562.222656 L 724.765625 569.207031 L 716.011719 569.207031 Z M 716.011719 562.222656 " clip-rule="nonzero"/></clipPath><clipPath id="aea0bd2a61"><path d="M 717.082031 564.890625 C 723.75 562.644531 724.425781 563.394531 724.574219 563.992188 C 724.722656 564.742188 724.199219 566.242188 723.601562 566.691406 C 723.074219 567.066406 721.953125 567.066406 721.425781 566.839844 C 720.828125 566.613281 720.152344 565.789062 720.003906 565.117188 C 719.929688 564.515625 720.230469 563.46875 720.679688 563.019531 C 721.128906 562.570312 722.101562 562.269531 722.777344 562.417969 C 723.375 562.492188 724.199219 563.167969 724.5 563.769531 C 724.722656 564.367188 724.722656 565.265625 724.273438 565.941406 C 723.601562 567.066406 720.378906 568.636719 719.105469 569.011719 C 718.429688 569.164062 717.980469 569.164062 717.53125 568.9375 C 717.007812 568.789062 716.558594 568.339844 716.332031 567.890625 C 716.03125 567.363281 716.03125 566.691406 716.109375 566.242188 C 716.257812 565.714844 717.082031 564.890625 717.082031 564.890625 " clip-rule="nonzero"/></clipPath><clipPath id="f3f2de8926"><path d="M 285.664062 115.515625 L 298.3125 115.515625 L 298.3125 124.8125 L 285.664062 124.8125 Z M 285.664062 115.515625 " clip-rule="nonzero"/></clipPath><clipPath id="4f7f1d1228"><path d="M 286.613281 120.710938 C 293.058594 116.066406 294.40625 115.539062 295.453125 115.691406 C 296.429688 115.765625 297.628906 116.515625 298.003906 117.1875 C 298.300781 117.789062 298.078125 118.835938 297.703125 119.4375 C 297.328125 119.960938 296.429688 120.484375 295.753906 120.484375 C 294.929688 120.410156 293.65625 119.4375 293.429688 118.6875 C 293.207031 118.089844 293.507812 116.964844 293.882812 116.515625 C 294.332031 115.992188 295.378906 115.617188 295.980469 115.691406 C 296.652344 115.765625 297.628906 116.289062 297.851562 116.964844 C 298.152344 117.640625 298.003906 119.0625 297.402344 119.8125 C 296.578125 120.710938 294.332031 120.5625 292.832031 121.308594 C 291.183594 122.132812 289.460938 124.683594 288.1875 124.683594 C 287.289062 124.757812 286.238281 123.933594 286.011719 123.257812 C 285.714844 122.585938 286.613281 120.710938 286.613281 120.710938 " clip-rule="nonzero"/></clipPath><clipPath id="922ab42ac8"><path d="M 716.097656 113.589844 L 733.5625 113.589844 L 733.5625 128.289062 L 716.097656 128.289062 Z M 716.097656 113.589844 " clip-rule="nonzero"/></clipPath><clipPath id="a16b65368a"><path d="M 724.5 115.839844 C 730.644531 119.363281 731.769531 120.710938 732.441406 121.835938 C 732.964844 122.660156 733.191406 123.332031 733.339844 124.15625 C 733.417969 125.058594 733.492188 126.480469 732.890625 127.078125 C 732.367188 127.753906 730.792969 128.277344 729.894531 127.980469 C 728.769531 127.53125 728.394531 124.980469 726.898438 123.632812 C 724.648438 121.535156 717.832031 119.585938 716.632812 117.714844 C 716.109375 116.890625 716.183594 115.914062 716.40625 115.242188 C 716.558594 114.640625 717.007812 114.117188 717.53125 113.96875 C 718.28125 113.667969 720.078125 113.816406 720.753906 114.34375 C 721.351562 114.792969 721.652344 115.992188 721.503906 116.738281 C 721.351562 117.414062 720.601562 118.386719 719.929688 118.6875 C 719.253906 118.988281 718.054688 118.835938 717.457031 118.539062 C 716.933594 118.238281 716.558594 117.789062 716.40625 117.1875 C 716.183594 116.515625 716.183594 115.316406 716.707031 114.714844 C 717.230469 114.042969 718.503906 113.59375 719.777344 113.742188 C 722.027344 113.890625 726.523438 116.515625 728.769531 118.539062 C 730.71875 120.1875 733.339844 124.15625 733.042969 124.457031 C 732.890625 124.605469 731.46875 123.183594 730.792969 123.257812 C 730.042969 123.410156 729.296875 125.132812 728.695312 125.058594 C 728.097656 124.980469 727.945312 123.707031 727.195312 122.957031 C 726 121.835938 722.625 120.710938 721.878906 119.363281 C 721.425781 118.539062 721.351562 117.414062 721.652344 116.816406 C 721.878906 116.363281 722.402344 115.914062 722.851562 115.765625 C 723.375 115.617188 724.5 115.839844 724.5 115.839844 " clip-rule="nonzero"/></clipPath><clipPath id="4307c3962c"><path d="M 283 123.238281 L 287.300781 123.238281 L 287.300781 127.917969 L 283 127.917969 Z M 283 123.238281 " clip-rule="nonzero"/></clipPath><clipPath id="e85f8cc3ec"><path d="M 287.289062 124.832031 C 285.339844 127.902344 283.539062 127.304688 283.167969 126.707031 C 282.792969 126.03125 283.167969 124.234375 283.691406 123.78125 C 284.289062 123.257812 286.6875 123.933594 286.6875 123.933594 " clip-rule="nonzero"/></clipPath><clipPath id="5f16c4c2d1"><path d="M 283 115 L 303.511719 115 L 303.511719 127.898438 L 283 127.898438 Z M 283 115 " clip-rule="nonzero"/></clipPath><clipPath id="17d945bd48"><path d="M 283.316406 124.082031 C 291.109375 117.5625 293.730469 116.441406 295.980469 115.839844 C 297.851562 115.316406 300.324219 114.714844 301.523438 115.242188 C 302.347656 115.539062 303.023438 116.289062 303.171875 116.964844 C 303.398438 117.640625 303.171875 118.761719 302.648438 119.363281 C 302.199219 119.886719 301.148438 120.335938 300.398438 120.261719 C 299.726562 120.1875 298.75 119.511719 298.453125 118.835938 C 298.078125 118.238281 298.078125 117.113281 298.453125 116.441406 C 298.75 115.839844 299.726562 115.089844 300.398438 115.089844 C 301.222656 115.089844 302.722656 115.992188 303.097656 116.664062 C 303.472656 117.339844 303.171875 118.539062 302.871094 119.136719 C 302.574219 119.585938 302.199219 119.886719 301.523438 120.113281 C 300.324219 120.636719 297.703125 119.960938 295.605469 120.785156 C 292.53125 121.910156 287.738281 127.605469 285.488281 127.753906 C 284.441406 127.828125 283.464844 127.304688 283.167969 126.707031 C 282.792969 126.105469 283.316406 124.082031 283.316406 124.082031 " clip-rule="nonzero"/></clipPath><clipPath id="b58eda3056"><path d="M 288.761719 115 L 303.136719 115 L 303.136719 121 L 288.761719 121 Z M 288.761719 115 " clip-rule="nonzero"/></clipPath><clipPath id="133d528438"><path d="M 300.476562 119.886719 C 294.03125 118.6875 293.882812 117.265625 294.179688 116.589844 C 294.554688 115.914062 295.902344 115.242188 296.652344 115.242188 C 297.253906 115.242188 297.851562 115.539062 298.226562 115.992188 C 298.601562 116.363281 298.902344 116.964844 298.902344 117.488281 C 298.828125 118.238281 298.300781 119.289062 297.476562 119.8125 C 295.980469 120.710938 291.109375 121.386719 289.835938 120.5625 C 289.085938 120.035156 288.785156 118.386719 289.085938 117.714844 C 289.386719 116.964844 290.882812 116.066406 291.632812 116.140625 C 292.457031 116.289062 293.582031 117.488281 293.804688 118.238281 C 293.957031 118.914062 293.582031 119.960938 293.058594 120.410156 C 292.457031 120.859375 290.808594 121.085938 290.058594 120.710938 C 289.460938 120.410156 288.859375 119.4375 288.9375 118.6875 C 288.9375 117.9375 289.910156 116.589844 290.585938 116.289062 C 291.257812 115.992188 292.007812 116.738281 292.90625 116.664062 C 293.957031 116.589844 295.679688 115.242188 296.652344 115.242188 C 297.253906 115.242188 297.851562 115.539062 298.226562 115.992188 C 298.601562 116.363281 298.902344 116.964844 298.902344 117.488281 C 298.828125 118.238281 298.152344 119.511719 297.476562 119.8125 C 296.726562 120.113281 295.230469 119.8125 294.628906 119.289062 C 294.105469 118.761719 293.957031 117.265625 294.179688 116.589844 C 294.40625 116.066406 294.78125 115.691406 295.378906 115.390625 C 296.429688 115.015625 298.976562 115.089844 300.25 115.242188 C 301 115.390625 301.597656 115.390625 302.125 115.765625 C 302.574219 116.214844 303.097656 117.039062 303.097656 117.714844 C 303.097656 118.3125 302.574219 119.210938 302.046875 119.511719 C 301.675781 119.886719 300.476562 119.886719 300.476562 119.886719 " clip-rule="nonzero"/></clipPath><clipPath id="74424345fc"><path d="M 284.046875 116.339844 L 298.789062 116.339844 L 298.789062 130.320312 L 284.046875 130.320312 Z M 284.046875 116.339844 " clip-rule="nonzero"/></clipPath><clipPath id="f5fe35ab4f"><path d="M 296.429688 121.160156 C 289.386719 122.882812 286.988281 123.109375 286.386719 122.359375 C 285.863281 121.835938 285.9375 120.410156 286.386719 119.8125 C 286.835938 119.0625 288.5625 118.386719 289.386719 118.613281 C 290.132812 118.835938 291.035156 119.660156 291.183594 120.636719 C 291.558594 122.585938 289.609375 128.726562 288.113281 129.703125 C 287.210938 130.300781 285.640625 130.078125 285.039062 129.550781 C 284.363281 128.953125 284.066406 127.230469 284.363281 126.480469 C 284.664062 125.804688 285.640625 125.132812 286.3125 125.058594 C 286.988281 124.980469 288.113281 125.28125 288.5625 125.882812 C 289.085938 126.480469 289.234375 128.203125 288.859375 128.953125 C 288.5625 129.550781 287.511719 130.152344 286.835938 130.152344 C 286.089844 130.152344 285.039062 129.628906 284.664062 129.101562 C 284.289062 128.726562 284.140625 128.277344 284.140625 127.53125 C 284.140625 125.957031 286.238281 119.585938 286.613281 119.585938 C 286.914062 119.660156 286.386719 121.835938 286.988281 122.285156 C 287.585938 122.882812 289.835938 122.957031 290.359375 122.507812 C 290.734375 122.132812 290.660156 120.859375 290.359375 120.261719 C 290.058594 119.511719 288.484375 118.988281 288.5625 118.464844 C 288.710938 117.789062 291.632812 117.113281 293.058594 116.816406 C 294.40625 116.515625 296.054688 116.363281 296.953125 116.664062 C 297.550781 116.816406 298.003906 117.1875 298.300781 117.5625 C 298.601562 118.011719 298.75 118.613281 298.675781 119.136719 C 298.601562 119.660156 298.300781 120.261719 297.925781 120.5625 C 297.550781 120.9375 296.429688 121.160156 296.429688 121.160156 " clip-rule="nonzero"/></clipPath><clipPath id="e3579a01dd"><path d="M 705.675781 157.410156 L 710.125 157.410156 L 710.125 162 L 705.675781 162 Z M 705.675781 157.410156 " clip-rule="nonzero"/></clipPath><clipPath id="8178faee21"><path d="M 710.113281 159 C 708.238281 161.996094 706.441406 161.472656 706.066406 160.875 C 705.691406 160.199219 705.992188 158.402344 706.589844 157.875 C 707.191406 157.425781 709.589844 158.101562 709.589844 158.101562 " clip-rule="nonzero"/></clipPath><clipPath id="48b8c447b4"><path d="M 706.550781 155.730469 L 719.902344 155.730469 L 719.902344 169 L 706.550781 169 Z M 706.550781 155.730469 " clip-rule="nonzero"/></clipPath><clipPath id="545194a060"><path d="M 709.363281 157.5 C 715.582031 159.523438 717.90625 162.597656 718.730469 164.246094 C 719.253906 165.21875 719.40625 166.941406 719.480469 166.941406 C 719.554688 166.867188 719.328125 164.917969 719.328125 164.917969 C 719.328125 164.917969 719.777344 167.015625 719.480469 167.691406 C 719.253906 168.214844 718.65625 168.589844 718.128906 168.816406 C 717.605469 168.964844 717.007812 169.039062 716.332031 168.664062 C 714.683594 167.839844 711.6875 161.699219 709.886719 160.273438 C 709.0625 159.523438 707.789062 159.675781 707.566406 159.074219 C 707.265625 158.402344 707.941406 156.828125 708.539062 156.300781 C 708.988281 155.929688 709.738281 155.777344 710.261719 155.851562 C 710.863281 155.929688 711.535156 156.152344 711.910156 156.675781 C 712.359375 157.277344 712.585938 158.925781 712.285156 159.675781 C 711.910156 160.273438 710.9375 160.875 710.261719 160.949219 C 709.515625 161.023438 708.464844 160.574219 708.015625 159.972656 C 707.566406 159.449219 707.339844 158.324219 707.566406 157.652344 C 707.789062 156.976562 708.539062 156.078125 709.289062 155.929688 C 710.039062 155.777344 711.6875 156.378906 712.136719 156.976562 C 712.585938 157.578125 712.660156 158.773438 712.359375 159.375 C 712.0625 160.050781 711.238281 160.796875 710.488281 160.875 C 709.738281 161.023438 708.238281 160.273438 707.789062 159.597656 C 707.414062 159.148438 707.414062 158.402344 707.492188 157.800781 C 707.640625 157.277344 708.015625 156.601562 708.539062 156.300781 C 709.0625 155.929688 710.039062 155.851562 710.863281 156.003906 C 711.988281 156.152344 713.335938 156.828125 714.382812 157.726562 C 715.582031 158.773438 716.558594 160.574219 717.457031 161.996094 C 718.355469 163.496094 719.855469 165.367188 719.855469 166.566406 C 719.777344 167.390625 719.179688 168.140625 718.65625 168.515625 C 718.207031 168.890625 717.53125 169.039062 716.933594 168.890625 C 715.65625 168.441406 714.160156 165.144531 712.4375 163.796875 C 710.863281 162.597656 707.941406 162.296875 707.191406 161.171875 C 706.667969 160.421875 706.589844 159.226562 706.964844 158.625 C 707.339844 157.949219 709.363281 157.5 709.363281 157.5 " clip-rule="nonzero"/></clipPath><clipPath id="ae9221d752"><path d="M 699.242188 152 L 721.460938 152 L 721.460938 169.929688 L 699.242188 169.929688 Z M 699.242188 152 " clip-rule="nonzero"/></clipPath><clipPath id="2a48ad09f8"><path d="M 706.964844 157.125 C 710.488281 154.878906 711.238281 154.730469 712.136719 154.804688 C 713.484375 154.953125 715.433594 155.476562 716.707031 156.753906 C 718.429688 158.402344 720.527344 162.820312 720.679688 164.84375 C 720.753906 166.042969 720.304688 167.09375 719.777344 167.691406 C 719.328125 168.066406 718.582031 168.214844 718.054688 168.214844 C 717.457031 168.140625 716.933594 167.992188 716.40625 167.46875 C 715.207031 166.269531 713.035156 161.699219 712.960938 160.050781 C 712.960938 159.300781 713.261719 158.699219 713.636719 158.324219 C 714.007812 157.875 714.683594 157.5 715.285156 157.351562 C 715.808594 157.277344 716.558594 157.425781 717.082031 157.800781 C 717.605469 158.175781 718.28125 159.898438 718.28125 159.898438 C 718.207031 159.972656 716.332031 157.726562 716.40625 157.652344 C 716.480469 157.652344 717.757812 158.476562 718.355469 159.226562 C 719.328125 160.5 721.128906 163.644531 721.203125 165.292969 C 721.203125 166.34375 720.601562 167.542969 720.003906 168.066406 C 719.554688 168.515625 718.730469 168.589844 718.207031 168.515625 C 717.605469 168.441406 717.082031 168.140625 716.480469 167.617188 C 715.507812 166.566406 713.484375 163.570312 713.710938 162.070312 C 713.933594 160.796875 715.957031 159 716.855469 158.925781 C 717.605469 158.851562 718.28125 159.523438 718.878906 160.273438 C 719.929688 161.546875 721.425781 165.070312 721.277344 166.792969 C 721.203125 167.917969 720.453125 169.039062 719.777344 169.488281 C 719.253906 169.863281 718.503906 169.863281 717.90625 169.714844 C 717.304688 169.566406 716.933594 169.265625 716.332031 168.589844 C 714.757812 166.792969 710.339844 159.523438 709.964844 157.050781 C 709.886719 156.003906 710.039062 155.253906 710.5625 154.730469 C 711.085938 154.054688 712.585938 153.457031 713.484375 153.605469 C 714.234375 153.753906 714.832031 154.429688 715.582031 155.402344 C 717.007812 157.125 720.230469 162.296875 720.304688 164.542969 C 720.378906 165.742188 719.703125 166.867188 719.105469 167.390625 C 718.582031 167.839844 717.832031 167.917969 717.230469 167.839844 C 716.558594 167.691406 716.109375 167.46875 715.507812 166.867188 C 714.160156 165.445312 711.613281 159.675781 711.011719 157.652344 C 710.710938 156.753906 710.5625 156.226562 710.710938 155.554688 C 710.863281 154.953125 711.238281 154.28125 711.6875 153.90625 C 712.136719 153.53125 712.960938 153.230469 713.558594 153.304688 C 714.160156 153.304688 714.757812 153.457031 715.359375 154.054688 C 716.855469 155.476562 720.152344 161.996094 720.230469 164.394531 C 720.304688 165.667969 719.855469 166.792969 719.253906 167.316406 C 718.730469 167.765625 717.90625 167.917969 717.304688 167.839844 C 716.707031 167.839844 716.257812 167.542969 715.582031 167.015625 C 714.085938 165.667969 710.789062 160.574219 710.1875 158.550781 C 709.886719 157.578125 709.964844 156.976562 710.113281 156.152344 C 710.339844 155.328125 710.863281 154.203125 711.460938 153.679688 C 711.988281 153.230469 712.660156 152.929688 713.261719 152.855469 C 713.859375 152.855469 714.609375 153.082031 715.132812 153.457031 C 715.582031 153.828125 715.957031 154.503906 716.109375 155.105469 C 716.183594 155.703125 715.808594 157.050781 715.734375 157.050781 C 715.65625 157.050781 715.507812 154.355469 715.808594 154.355469 C 716.40625 154.203125 720.527344 162.222656 720.902344 164.320312 C 721.054688 165.144531 720.976562 165.742188 720.679688 166.269531 C 720.378906 166.792969 719.855469 167.390625 719.253906 167.542969 C 718.429688 167.765625 717.15625 167.542969 716.183594 166.792969 C 714.535156 165.59375 711.164062 160.050781 711.6875 159.074219 C 711.910156 158.550781 714.234375 158.699219 714.234375 158.773438 C 714.234375 158.851562 711.085938 159.675781 709.738281 159.75 C 708.765625 159.75 707.714844 159.75 706.964844 159.300781 C 706.21875 158.851562 705.46875 158.027344 705.316406 157.203125 C 705.167969 156.378906 705.691406 155.105469 706.292969 154.429688 C 706.742188 153.828125 707.640625 153.53125 708.316406 153.15625 C 709.0625 152.707031 709.8125 152.257812 710.710938 152.179688 C 711.535156 152.03125 712.8125 151.957031 713.558594 152.40625 C 714.234375 152.929688 715.058594 154.355469 714.984375 155.179688 C 714.910156 156.003906 714.308594 156.753906 713.558594 157.351562 C 712.359375 158.175781 709.589844 159.523438 708.015625 159.300781 C 706.589844 159.074219 704.570312 157.425781 704.34375 156.453125 C 704.195312 155.777344 704.792969 154.953125 705.394531 154.355469 C 706.292969 153.53125 708.238281 152.929688 709.664062 152.707031 C 711.164062 152.480469 713.183594 152.105469 714.382812 152.929688 C 715.734375 153.828125 717.230469 156.976562 717.15625 158.476562 C 717.082031 159.523438 716.109375 160.722656 715.433594 161.097656 C 714.832031 161.398438 714.007812 161.398438 713.484375 161.171875 C 712.8125 160.875 712.359375 159.597656 711.6875 159.300781 C 711.011719 159 710.113281 159 709.363281 159.148438 C 708.539062 159.300781 707.042969 160.5 706.890625 160.273438 C 706.742188 160.125 708.390625 158.699219 708.164062 158.324219 C 708.015625 158.027344 706.066406 157.875 705.617188 158.324219 C 705.316406 158.699219 705.84375 160.574219 705.765625 160.574219 C 705.765625 160.574219 704.941406 157.351562 705.167969 156.152344 C 705.316406 155.328125 705.691406 154.652344 706.21875 154.203125 C 706.742188 153.753906 707.640625 153.457031 708.316406 153.605469 C 709.214844 153.753906 710.636719 154.503906 711.011719 155.328125 C 711.3125 156.078125 711.085938 157.5 710.339844 158.402344 C 709.140625 159.75 704.71875 161.472656 702.917969 161.246094 C 701.796875 161.097656 700.671875 160.199219 700.296875 159.523438 C 699.996094 158.925781 700.074219 158.101562 700.222656 157.578125 C 700.445312 156.976562 700.820312 156.527344 701.496094 156.078125 C 702.996094 155.105469 707.414062 153.679688 709.363281 153.980469 C 710.488281 154.128906 711.613281 154.878906 711.988281 155.628906 C 712.359375 156.152344 712.285156 156.976562 712.136719 157.578125 C 711.910156 158.101562 711.613281 158.625 710.9375 159.074219 C 709.289062 160.050781 703.445312 161.699219 701.570312 161.023438 C 700.445312 160.722656 699.699219 159.449219 699.472656 158.699219 C 699.324219 158.027344 699.621094 157.277344 699.996094 156.753906 C 700.371094 156.300781 700.898438 155.929688 701.644531 155.703125 C 702.769531 155.328125 705.394531 155.105469 706.667969 155.554688 C 707.640625 155.929688 708.613281 156.675781 708.839844 157.425781 C 709.0625 158.324219 708.464844 160.199219 707.714844 160.796875 C 707.042969 161.324219 705.46875 161.398438 704.71875 161.023438 C 703.96875 160.574219 703.144531 159.074219 703.21875 158.25 C 703.21875 157.5 703.894531 156.601562 704.644531 156.078125 C 705.46875 155.554688 708.015625 155.179688 708.164062 155.476562 C 708.316406 155.703125 706.515625 156.601562 706.367188 157.351562 C 706.292969 157.949219 707.640625 158.851562 707.414062 159.449219 C 707.191406 160.273438 704.867188 161.097656 703.742188 161.398438 C 702.84375 161.699219 701.871094 161.921875 701.195312 161.621094 C 700.445312 161.324219 699.621094 160.421875 699.546875 159.675781 C 699.398438 158.851562 700.074219 157.277344 700.746094 156.753906 C 701.347656 156.300781 702.246094 156.226562 703.070312 156.300781 C 703.96875 156.453125 705.167969 156.902344 705.917969 157.578125 C 706.742188 158.25 707.714844 159.523438 707.789062 160.5 C 707.867188 161.398438 707.117188 162.820312 706.441406 163.347656 C 705.917969 163.71875 705.09375 163.71875 704.492188 163.644531 C 703.894531 163.496094 703.144531 163.121094 702.84375 162.523438 C 702.46875 161.773438 702.621094 159.972656 703.21875 158.851562 C 703.96875 157.425781 706.292969 155.328125 707.640625 155.105469 C 708.691406 154.953125 710.039062 155.703125 710.488281 156.378906 C 710.9375 157.050781 711.011719 158.25 710.636719 159 C 710.339844 159.675781 709.589844 160.347656 708.613281 160.574219 C 707.265625 160.949219 703.820312 160.421875 702.769531 159.675781 C 702.171875 159.226562 701.871094 158.550781 701.796875 157.949219 C 701.722656 157.351562 701.796875 156.601562 702.246094 156.003906 C 702.84375 155.179688 704.570312 154.203125 705.84375 153.679688 C 707.042969 153.15625 708.613281 152.78125 709.664062 152.929688 C 710.414062 153.003906 711.011719 153.378906 711.386719 153.828125 C 711.835938 154.28125 712.136719 155.027344 712.210938 155.628906 C 712.210938 156.226562 711.910156 156.976562 711.535156 157.5 C 711.164062 157.949219 710.414062 158.402344 709.8125 158.402344 C 709.140625 158.476562 708.164062 157.351562 707.640625 157.578125 C 707.117188 157.800781 707.117188 159.148438 706.515625 159.597656 C 705.84375 160.050781 704.492188 160.421875 703.742188 160.050781 C 702.84375 159.675781 701.722656 157.726562 701.796875 156.828125 C 701.871094 156.078125 702.769531 155.402344 703.519531 154.878906 C 704.570312 154.054688 706.21875 153.15625 707.714844 152.855469 C 709.363281 152.554688 712.511719 152.332031 713.183594 153.230469 C 713.785156 154.128906 712.886719 156.902344 711.761719 158.027344 C 710.414062 159.375 706.816406 160.050781 704.867188 160.199219 C 703.519531 160.273438 701.871094 160.199219 701.195312 159.597656 C 700.671875 159.074219 700.523438 157.875 700.671875 157.203125 C 700.898438 156.453125 701.644531 155.777344 702.46875 155.105469 C 703.894531 154.054688 706.890625 152.554688 708.839844 152.257812 C 710.488281 151.957031 712.4375 152.03125 713.558594 152.632812 C 714.460938 153.003906 714.832031 153.605469 715.582031 154.652344 C 717.007812 156.675781 720.378906 163.046875 720.753906 165.144531 C 720.828125 165.96875 720.753906 166.417969 720.453125 166.867188 C 720.230469 167.390625 719.777344 167.917969 719.179688 168.140625 C 718.503906 168.367188 717.304688 168.441406 716.632812 168.066406 C 715.957031 167.691406 715.359375 166.566406 715.207031 165.820312 C 715.132812 165.292969 715.359375 164.621094 715.65625 164.09375 C 715.957031 163.644531 716.480469 163.195312 717.082031 163.046875 C 717.757812 162.820312 719.03125 163.046875 719.628906 163.421875 C 720.152344 163.71875 720.527344 164.320312 720.679688 164.84375 C 720.828125 165.367188 720.828125 166.117188 720.601562 166.644531 C 720.378906 167.167969 720.003906 167.691406 719.480469 167.992188 C 718.804688 168.367188 717.757812 168.664062 716.855469 168.214844 C 715.132812 167.242188 713.183594 160.796875 711.6875 159.148438 C 711.011719 158.402344 710.5625 157.875 709.886719 157.800781 C 709.214844 157.726562 708.390625 158.773438 707.640625 158.925781 C 706.890625 159.074219 705.691406 159.148438 705.242188 158.699219 C 704.71875 158.324219 705.242188 156.976562 704.71875 156.453125 C 704.117188 155.851562 701.496094 156.152344 701.421875 155.703125 C 701.421875 155.105469 710.414062 151.882812 711.011719 152.554688 C 711.3125 153.003906 708.613281 155.253906 708.765625 156.226562 C 708.914062 156.976562 711.011719 157.578125 710.9375 157.949219 C 710.789062 158.476562 706.964844 159.074219 706.21875 158.476562 C 705.617188 158.027344 706.441406 156.300781 705.84375 155.777344 C 705.242188 155.253906 702.320312 156.003906 702.246094 155.703125 C 702.171875 155.328125 707.265625 152.855469 709.0625 152.929688 C 710.1875 152.929688 711.3125 153.679688 711.835938 154.355469 C 712.210938 154.878906 712.210938 155.703125 712.136719 156.300781 C 711.988281 156.902344 711.613281 157.578125 711.085938 157.949219 C 710.1875 158.402344 708.089844 157.800781 707.117188 158.25 C 706.292969 158.699219 705.992188 160.050781 705.242188 160.199219 C 704.417969 160.421875 702.84375 159.824219 702.320312 159.148438 C 701.796875 158.476562 701.796875 156.753906 702.246094 156.003906 C 702.769531 155.253906 704.34375 154.730469 705.46875 154.578125 C 706.589844 154.429688 708.089844 154.804688 708.988281 155.179688 C 709.664062 155.476562 710.1875 155.851562 710.488281 156.378906 C 710.863281 157.050781 711.011719 158.101562 710.636719 159 C 710.1875 160.273438 707.265625 163.195312 706.890625 162.972656 C 706.589844 162.820312 707.492188 159.824219 707.640625 159.824219 C 707.714844 159.824219 707.867188 161.246094 707.714844 161.773438 C 707.492188 162.371094 706.964844 163.046875 706.441406 163.347656 C 705.765625 163.644531 704.570312 163.644531 703.894531 163.421875 C 703.292969 163.121094 702.46875 162.296875 702.46875 161.996094 C 702.546875 161.699219 703.742188 161.472656 703.742188 161.398438 C 703.742188 161.324219 701.871094 161.921875 701.195312 161.621094 C 700.445312 161.324219 699.621094 160.421875 699.546875 159.675781 C 699.398438 158.851562 700.074219 157.578125 700.746094 156.753906 C 701.644531 155.777344 703.445312 154.878906 704.71875 154.429688 C 705.691406 154.054688 706.589844 153.90625 707.492188 153.90625 C 708.238281 153.980469 709.0625 154.128906 709.738281 154.503906 C 710.414062 154.878906 711.164062 155.628906 711.535156 156.300781 C 711.835938 157.050781 712.0625 157.949219 711.761719 158.699219 C 711.386719 159.597656 709.964844 160.574219 708.914062 161.023438 C 707.867188 161.398438 706.292969 161.472656 705.394531 161.246094 C 704.644531 161.023438 704.042969 160.722656 703.742188 160.125 C 703.371094 159.523438 703.070312 158.324219 703.371094 157.578125 C 703.667969 156.828125 705.992188 155.851562 705.917969 155.777344 C 705.84375 155.703125 705.019531 155.929688 704.71875 156.226562 C 704.195312 156.828125 703.445312 158.476562 703.59375 159.375 C 703.742188 160.050781 705.394531 160.722656 705.242188 161.023438 C 705.019531 161.472656 701.871094 161.398438 700.972656 160.796875 C 700.148438 160.273438 699.472656 158.851562 699.472656 158.027344 C 699.546875 157.277344 700.296875 156.453125 700.972656 155.929688 C 701.871094 155.253906 703.21875 154.953125 704.570312 154.652344 C 706.292969 154.28125 709.363281 153.53125 710.636719 154.203125 C 711.535156 154.652344 712.285156 156.003906 712.210938 156.902344 C 712.210938 157.726562 711.3125 158.699219 710.261719 159.375 C 708.613281 160.421875 703.894531 161.472656 702.246094 161.171875 C 701.421875 161.023438 700.972656 160.648438 700.597656 160.125 C 700.222656 159.449219 699.847656 158.324219 700.222656 157.578125 C 700.820312 156.300781 703.742188 154.730469 705.46875 154.128906 C 706.890625 153.679688 708.691406 153.53125 709.664062 153.90625 C 710.261719 154.128906 710.710938 154.730469 711.011719 155.328125 C 711.238281 155.851562 711.3125 156.601562 711.011719 157.277344 C 710.488281 158.476562 707.867188 160.5 706.441406 161.023438 C 705.46875 161.398438 704.34375 161.546875 703.742188 161.097656 C 702.84375 160.5 702.019531 158.027344 702.320312 156.976562 C 702.621094 156.226562 703.742188 155.628906 704.570312 155.328125 C 705.316406 155.027344 706.21875 154.953125 707.042969 155.105469 C 707.789062 155.253906 708.613281 155.628906 709.214844 156.226562 C 709.8125 156.753906 710.339844 157.578125 710.414062 158.476562 C 710.488281 159.675781 709.515625 161.996094 708.613281 162.820312 C 707.941406 163.421875 706.964844 163.644531 706.140625 163.644531 C 705.394531 163.644531 704.570312 163.421875 703.96875 162.894531 C 703.371094 162.371094 702.917969 161.324219 702.695312 160.421875 C 702.46875 159.597656 702.394531 158.550781 702.695312 157.726562 C 702.917969 156.902344 703.519531 156.078125 704.195312 155.554688 C 704.792969 155.027344 705.394531 154.730469 706.292969 154.503906 C 707.640625 154.054688 709.8125 153.457031 711.386719 153.605469 C 712.886719 153.828125 714.683594 154.652344 715.582031 155.476562 C 716.332031 156.078125 716.855469 157.050781 717.007812 157.800781 C 717.15625 158.476562 717.082031 159.226562 716.855469 159.75 C 716.558594 160.273438 716.03125 160.949219 715.433594 161.097656 C 714.609375 161.324219 713.109375 161.097656 712.359375 160.421875 C 711.460938 159.75 710.339844 156.902344 710.5625 156.601562 C 710.789062 156.453125 712.660156 157.351562 712.585938 157.652344 C 712.585938 158.25 708.164062 159.675781 707.867188 159.300781 C 707.640625 159.074219 708.988281 157.949219 708.988281 157.277344 C 708.914062 156.453125 708.164062 155.105469 707.414062 154.652344 C 706.816406 154.28125 705.242188 154.730469 705.167969 154.503906 C 705.167969 154.203125 708.316406 152.855469 709.8125 152.480469 C 711.085938 152.179688 712.660156 151.957031 713.558594 152.40625 C 714.234375 152.78125 714.832031 153.828125 714.984375 154.503906 C 715.132812 155.179688 714.832031 155.929688 714.535156 156.453125 C 714.160156 156.902344 713.558594 157.425781 712.886719 157.578125 C 712.210938 157.726562 710.9375 157.726562 710.488281 157.277344 C 710.039062 156.753906 709.8125 155.253906 710.1875 154.730469 C 710.5625 154.203125 711.761719 153.980469 712.585938 154.054688 C 713.636719 154.128906 714.832031 154.578125 715.957031 155.554688 C 717.679688 157.203125 720.753906 162.148438 720.902344 164.320312 C 720.976562 165.519531 720.453125 166.71875 719.777344 167.242188 C 719.328125 167.691406 718.503906 167.765625 717.90625 167.691406 C 717.304688 167.617188 716.78125 167.46875 716.183594 166.792969 C 714.683594 165.292969 711.238281 158.851562 710.789062 156.527344 C 710.636719 155.554688 710.789062 154.730469 711.011719 154.203125 C 711.238281 153.753906 711.535156 153.457031 711.988281 153.230469 C 712.511719 153.003906 713.335938 152.78125 713.933594 152.929688 C 714.535156 153.003906 715.207031 153.378906 715.582031 153.90625 C 715.957031 154.503906 716.257812 155.628906 716.03125 156.453125 C 715.734375 157.425781 713.636719 159.148438 713.636719 159.148438 C 713.636719 159.226562 714.757812 157.277344 715.507812 157.277344 C 716.707031 157.425781 719.40625 162.222656 720.003906 163.796875 C 720.304688 164.542969 720.453125 165.144531 720.304688 165.742188 C 720.152344 166.34375 719.703125 167.015625 719.253906 167.316406 C 718.730469 167.691406 717.90625 167.917969 717.304688 167.839844 C 716.707031 167.839844 715.582031 167.015625 715.582031 167.015625 C 715.582031 167.015625 716.40625 167.390625 716.40625 167.316406 C 716.558594 167.167969 714.984375 165.742188 714.234375 164.542969 C 713.109375 162.671875 711.164062 158.625 710.789062 156.902344 C 710.636719 156.078125 710.636719 155.476562 710.863281 154.953125 C 711.164062 154.355469 711.6875 153.753906 712.285156 153.53125 C 712.8125 153.304688 713.636719 153.230469 714.234375 153.378906 C 714.757812 153.53125 715.207031 153.90625 715.734375 154.578125 C 717.007812 156.152344 719.628906 161.699219 720.078125 163.871094 C 720.304688 164.996094 720.304688 165.820312 720.003906 166.492188 C 719.703125 167.015625 719.105469 167.542969 718.503906 167.691406 C 717.832031 167.917969 716.78125 167.839844 715.957031 167.316406 C 714.609375 166.34375 712.511719 162.371094 712.359375 160.722656 C 712.210938 159.824219 712.511719 159.226562 712.886719 158.476562 C 713.410156 157.578125 714.535156 155.703125 715.433594 155.851562 C 717.082031 156.078125 720.601562 164.019531 721.128906 166.117188 C 721.351562 166.941406 721.351562 167.46875 721.128906 168.066406 C 720.902344 168.589844 720.378906 169.191406 719.777344 169.488281 C 719.253906 169.789062 718.503906 169.863281 717.90625 169.714844 C 717.304688 169.566406 716.707031 169.191406 716.332031 168.589844 C 715.65625 167.542969 715.058594 164.84375 715.433594 163.347656 C 715.808594 162.070312 717.230469 160.199219 718.054688 160.199219 C 718.878906 160.199219 719.855469 161.699219 720.378906 162.746094 C 720.902344 163.945312 721.277344 166.191406 720.902344 167.167969 C 720.679688 167.765625 720.003906 168.214844 719.480469 168.367188 C 718.878906 168.589844 718.128906 168.589844 717.53125 168.367188 C 717.007812 168.140625 716.558594 167.691406 716.183594 167.015625 C 715.507812 166.042969 715.507812 163.570312 714.832031 162.296875 C 714.382812 161.324219 713.035156 160.796875 712.960938 160.050781 C 712.960938 159.226562 713.859375 157.875 714.609375 157.578125 C 715.359375 157.277344 716.707031 157.5 717.53125 158.175781 C 718.953125 159.375 720.753906 163.796875 720.753906 165.519531 C 720.753906 166.417969 720.304688 167.242188 719.777344 167.691406 C 719.328125 168.066406 718.65625 168.292969 718.054688 168.214844 C 717.382812 168.140625 716.558594 167.691406 715.957031 166.941406 C 714.984375 165.742188 714.609375 162.070312 713.710938 160.796875 C 713.109375 160.050781 712.585938 159.449219 711.910156 159.375 C 711.011719 159.375 709.664062 161.171875 708.691406 161.324219 C 707.941406 161.472656 707.117188 161.324219 706.589844 160.875 C 706.140625 160.5 705.765625 159.523438 705.84375 158.925781 C 705.84375 158.25 706.964844 157.125 706.964844 157.125 " clip-rule="nonzero"/></clipPath><clipPath id="c363e04e9e"><path d="M 724 153.828125 L 740.351562 153.828125 L 740.351562 185.46875 L 724 185.46875 Z M 724 153.828125 " clip-rule="nonzero"/></clipPath><clipPath id="46b3e8eb4e"><path d="M 735.738281 183.578125 C 724.125 155.476562 724.875 154.503906 725.699219 154.128906 C 726.296875 153.828125 727.496094 154.054688 728.097656 154.429688 C 728.621094 154.652344 728.996094 155.179688 729.144531 155.703125 C 729.371094 156.378906 729.144531 157.578125 728.769531 158.175781 C 728.472656 158.699219 727.871094 159 727.421875 159.148438 C 726.898438 159.300781 726.222656 159.300781 725.699219 159.074219 C 725.097656 158.773438 724.273438 157.875 724.050781 157.203125 C 723.898438 156.453125 724.199219 155.328125 724.722656 154.804688 C 725.324219 154.203125 726.898438 153.828125 727.871094 154.28125 C 729.371094 154.953125 730.269531 157.875 731.691406 160.722656 C 734.089844 165.820312 739.859375 179.53125 740.234375 182.675781 C 740.308594 183.5 740.234375 183.800781 739.933594 184.25 C 739.636719 184.777344 738.734375 185.300781 738.136719 185.375 C 737.613281 185.449219 737.011719 185.226562 736.636719 184.925781 C 736.1875 184.625 735.738281 183.578125 735.738281 183.578125 " clip-rule="nonzero"/></clipPath><clipPath id="8bef419eb2"><path d="M 720.511719 146.453125 L 729 146.453125 L 729 159 L 720.511719 159 Z M 720.511719 146.453125 " clip-rule="nonzero"/></clipPath><clipPath id="50a69254ce"><path d="M 724.648438 157.652344 C 720.679688 148.058594 721.503906 147.011719 722.25 146.710938 C 723 146.488281 724.574219 147.085938 725.023438 147.683594 C 725.472656 148.210938 725.546875 149.332031 725.25 149.933594 C 725.023438 150.53125 724.199219 151.28125 723.527344 151.433594 C 722.925781 151.582031 721.800781 151.28125 721.351562 150.757812 C 720.828125 150.308594 720.527344 149.332031 720.601562 148.660156 C 720.753906 147.984375 721.351562 147.085938 722.027344 146.859375 C 722.703125 146.5625 723.976562 146.785156 724.875 147.460938 C 726.371094 148.660156 728.171875 153.828125 728.695312 155.554688 C 728.921875 156.300781 728.996094 156.675781 728.84375 157.125 C 728.769531 157.652344 728.320312 158.175781 727.945312 158.476562 C 727.496094 158.773438 726.898438 159 726.371094 158.851562 C 725.773438 158.773438 724.648438 157.652344 724.648438 157.652344 " clip-rule="nonzero"/></clipPath><clipPath id="cf6ce84d06"><path d="M 720.21875 143.101562 L 734.628906 143.101562 L 734.628906 170.894531 L 720.21875 170.894531 Z M 720.21875 143.101562 " clip-rule="nonzero"/></clipPath><clipPath id="973f5f30f2"><path d="M 725.25 157.5 C 720.453125 144.6875 721.203125 143.714844 721.953125 143.414062 C 722.703125 143.191406 724.050781 143.5625 724.722656 144.164062 C 725.472656 144.761719 726.148438 146.261719 726.074219 147.160156 C 725.921875 147.984375 725.023438 149.183594 724.273438 149.410156 C 723.527344 149.707031 722.101562 149.257812 721.503906 148.585938 C 720.902344 147.910156 720.601562 146.261719 720.902344 145.363281 C 721.128906 144.464844 722.175781 143.488281 723 143.265625 C 723.675781 143.113281 724.425781 143.265625 725.25 144.015625 C 727.570312 146.113281 731.917969 158.699219 733.339844 162.894531 C 734.015625 164.84375 734.539062 166.042969 734.464844 167.390625 C 734.390625 168.441406 733.941406 169.941406 733.191406 170.390625 C 732.441406 170.839844 730.644531 170.464844 729.96875 170.015625 C 729.445312 169.640625 729.21875 169.039062 729.144531 168.441406 C 729.144531 167.765625 729.445312 166.566406 729.96875 166.042969 C 730.570312 165.59375 731.691406 165.21875 732.441406 165.445312 C 733.191406 165.59375 734.164062 166.34375 734.316406 167.09375 C 734.613281 167.917969 734.089844 169.640625 733.417969 170.238281 C 732.890625 170.6875 731.617188 170.765625 730.945312 170.613281 C 730.417969 170.464844 730.042969 170.164062 729.59375 169.566406 C 728.097656 167.617188 725.625 160.050781 724.125 155.703125 C 722.777344 152.03125 720.527344 147.3125 720.902344 145.363281 C 721.054688 144.386719 721.726562 143.714844 722.402344 143.488281 C 723.152344 143.191406 724.648438 143.414062 725.25 144.015625 C 725.921875 144.6875 726.222656 146.785156 725.921875 147.761719 C 725.699219 148.507812 724.949219 149.183594 724.273438 149.410156 C 723.601562 149.632812 722.625 149.484375 721.953125 149.035156 C 721.203125 148.433594 720.230469 146.785156 720.304688 145.8125 C 720.378906 144.914062 721.277344 143.789062 721.953125 143.414062 C 722.476562 143.191406 723.226562 143.265625 723.75 143.488281 C 724.273438 143.640625 724.648438 143.9375 725.097656 144.6875 C 726.371094 146.5625 729.820312 154.804688 729.820312 156.976562 C 729.820312 157.726562 729.519531 158.101562 729.21875 158.476562 C 728.84375 158.851562 728.246094 159.148438 727.722656 159.226562 C 727.273438 159.300781 726.597656 159.148438 726.148438 158.851562 C 725.773438 158.550781 725.25 157.5 725.25 157.5 " clip-rule="nonzero"/></clipPath><clipPath id="d8bf25c803"><path d="M 466 479.605469 L 470.425781 479.605469 L 470.425781 484 L 466 484 Z M 466 479.605469 " clip-rule="nonzero"/></clipPath><clipPath id="41af981c8f"><path d="M 470.414062 481.121094 C 468.542969 484.191406 466.742188 483.59375 466.367188 482.992188 C 465.992188 482.320312 466.292969 480.519531 466.894531 480.070312 C 467.492188 479.621094 469.890625 480.222656 469.890625 480.222656 " clip-rule="nonzero"/></clipPath><clipPath id="c1690377e9"><path d="M 452.339844 431.351562 L 456.867188 431.351562 L 456.867188 435.953125 L 452.339844 435.953125 Z M 452.339844 431.351562 " clip-rule="nonzero"/></clipPath><clipPath id="b11e294f01"><path d="M 456.851562 432.941406 C 454.902344 435.9375 453.105469 435.414062 452.730469 434.738281 C 452.355469 434.140625 452.730469 432.265625 453.253906 431.816406 C 453.855469 431.367188 456.253906 432.042969 456.253906 432.042969 " clip-rule="nonzero"/></clipPath></defs><g clip-path="url(#d5081af4b2)"><path fill="#ffffff" d="M 34.171875 -110.230469 L 989.519531 -110.230469 L 989.519531 618.832031 L 34.171875 618.832031 Z M 34.171875 -110.230469 " fill-opacity="1" fill-rule="nonzero"/></g><g clip-path="url(#cbd1604d2f)"><path fill="#4b4e5b" d="M 745.628906 262.59375 C 745.628906 266.441406 743.964844 270.140625 741.070312 272.738281 C 738.144531 275.367188 734.386719 276.59375 730.46875 276.15625 C 724.011719 275.457031 718.34375 268.941406 718.34375 262.226562 L 718.351562 248.746094 C 718.351562 248.273438 718.296875 247.804688 718.199219 247.335938 L 699.046875 158.84375 C 700.671875 157.585938 702.179688 156.230469 704.296875 155.367188 L 721.617188 166.113281 L 745.628906 249.679688 Z M 306.878906 551.078125 L 306.878906 281.191406 C 311.148438 285.628906 316.761719 288.726562 322.972656 289.398438 C 323.9375 289.503906 324.90625 289.554688 325.867188 289.554688 C 332.484375 289.554688 338.933594 287.113281 343.902344 282.648438 C 346.601562 280.226562 348.703125 277.289062 350.222656 274.089844 C 353.539062 278.742188 358.585938 282.15625 364.296875 282.773438 C 372.066406 283.613281 379.074219 279.972656 383.144531 274.148438 C 387.210938 282.269531 395.0625 288.410156 404.1875 289.398438 C 405.152344 289.503906 406.117188 289.554688 407.078125 289.554688 C 413.699219 289.554688 420.148438 287.113281 425.117188 282.648438 C 427.8125 280.226562 429.917969 277.289062 431.4375 274.089844 C 434.753906 278.742188 439.796875 282.15625 445.507812 282.773438 C 453.277344 283.613281 460.285156 279.972656 464.355469 274.148438 C 468.421875 282.269531 476.277344 288.410156 485.398438 289.398438 C 486.363281 289.503906 487.328125 289.554688 488.292969 289.554688 C 494.910156 289.554688 501.359375 287.113281 506.328125 282.648438 C 509.027344 280.226562 511.132812 277.289062 512.652344 274.089844 C 515.964844 278.742188 521.007812 282.15625 526.726562 282.773438 C 534.492188 283.613281 541.5 279.972656 545.570312 274.144531 C 549.636719 282.269531 557.492188 288.410156 566.613281 289.398438 C 567.578125 289.503906 568.546875 289.554688 569.507812 289.554688 C 576.125 289.554688 582.570312 287.113281 587.539062 282.648438 C 590.238281 280.226562 592.34375 277.289062 593.863281 274.089844 C 597.179688 278.742188 602.222656 282.15625 607.9375 282.773438 C 615.707031 283.613281 622.714844 279.972656 626.78125 274.144531 C 630.851562 282.269531 638.707031 288.410156 647.828125 289.398438 C 648.789062 289.503906 649.757812 289.554688 650.714844 289.554688 C 657.339844 289.554688 663.785156 287.113281 668.753906 282.648438 C 671.453125 280.226562 673.558594 277.289062 675.074219 274.089844 C 678.390625 278.742188 683.433594 282.15625 689.148438 282.773438 C 696.914062 283.613281 703.925781 279.972656 707.996094 274.148438 C 708.695312 275.550781 709.5 276.875 710.417969 278.136719 L 710.417969 551.078125 Z M 312.285156 249.460938 L 331.472656 160.773438 C 335.96875 158.761719 337.632812 154.476562 344.625 154.476562 C 350 154.476562 352.210938 157.019531 354.980469 159.109375 L 339.65625 247.617188 C 339.59375 247.988281 339.5625 248.371094 339.5625 248.75 L 339.5625 262.59375 C 339.5625 266.441406 337.902344 270.140625 335.003906 272.738281 C 332.078125 275.367188 328.320312 276.59375 324.40625 276.15625 C 317.945312 275.457031 312.277344 268.941406 312.277344 262.226562 Z M 393.496094 249.179688 L 405.015625 160.464844 C 409.039062 158.355469 410.863281 154.476562 417.515625 154.476562 C 423.261719 154.476562 425.410156 157.371094 428.480469 159.523438 L 420.777344 248.75 L 420.777344 262.59375 C 420.777344 266.441406 419.113281 270.140625 416.214844 272.738281 C 413.292969 275.367188 409.527344 276.59375 405.621094 276.15625 C 399.160156 275.457031 393.488281 268.941406 393.488281 262.226562 Z M 474.707031 248.894531 L 478.550781 160.074219 C 482.128906 157.910156 484.132812 154.476562 490.402344 154.476562 C 496.523438 154.476562 498.574219 157.746094 501.992188 159.917969 L 501.988281 262.59375 C 501.988281 266.441406 500.324219 270.140625 497.433594 272.738281 C 494.507812 275.367188 490.75 276.59375 486.832031 276.15625 C 480.367188 275.457031 474.703125 268.941406 474.703125 262.226562 Z M 552.074219 159.679688 C 555.28125 157.519531 557.394531 154.476562 563.292969 154.476562 C 569.789062 154.476562 571.691406 158.164062 575.527344 160.308594 L 583.203125 248.75 L 583.203125 262.59375 C 583.203125 266.441406 581.539062 270.140625 578.644531 272.738281 C 575.71875 275.367188 571.957031 276.59375 568.050781 276.15625 C 561.585938 275.457031 555.917969 268.941406 555.917969 262.226562 L 555.917969 248.453125 Z M 637.082031 247.886719 L 625.574219 159.277344 C 628.464844 157.15625 630.652344 154.476562 636.179688 154.476562 C 643.054688 154.476562 644.757812 158.628906 649.066406 160.683594 L 664.414062 249.324219 L 664.414062 262.59375 C 664.414062 266.441406 662.75 270.140625 659.855469 272.738281 C 656.933594 275.367188 653.167969 276.59375 649.257812 276.15625 C 642.796875 275.457031 637.128906 268.941406 637.128906 262.226562 L 637.132812 248.746094 C 637.132812 248.457031 637.117188 248.171875 637.082031 247.886719 Z M 758.691406 246.910156 L 733.714844 159.96875 C 733.261719 158.378906 732.230469 157.019531 730.824219 156.152344 L 727.3125 153.972656 L 727.3125 124.765625 C 727.3125 122.820312 725.722656 121.226562 723.777344 121.226562 L 293.53125 121.226562 C 291.582031 121.226562 289.992188 122.820312 289.992188 124.765625 L 289.992188 161.808594 L 265.015625 248.742188 L 265.011719 248.75 L 265.011719 262.222656 C 265.011719 272.246094 273.117188 281.699219 283.082031 282.773438 C 286.5625 283.152344 289.855469 282.554688 292.84375 281.34375 L 292.84375 565.113281 L 724.453125 565.113281 L 724.453125 288.429688 C 725.945312 288.882812 727.46875 289.226562 729.042969 289.398438 C 730.003906 289.503906 730.96875 289.554688 731.929688 289.554688 C 738.550781 289.554688 744.996094 287.113281 749.96875 282.648438 C 755.675781 277.527344 758.949219 270.21875 758.949219 262.59375 L 758.949219 248.742188 C 758.949219 248.125 758.859375 247.503906 758.691406 246.910156 " fill-opacity="1" fill-rule="nonzero"/></g><g clip-path="url(#fbb5b4f5b9)"><g clip-path="url(#3803ec675d)"><path fill="#4b4e5b" d="M 289.085938 39.703125 L 722.6875 39.703125 L 722.6875 114.25 L 289.085938 114.25 Z M 289.085938 39.703125 " fill-opacity="1" fill-rule="nonzero"/></g></g><g fill="#ffffff" fill-opacity="1"><g transform="translate(386.458615, 93.460697)"><g><path d="M 13.90625 0.453125 C 11.726562 0.453125 9.789062 0.1875 8.09375 -0.34375 C 6.40625 -0.882812 4.992188 -1.59375 3.859375 -2.46875 C 2.734375 -3.34375 1.867188 -4.300781 1.265625 -5.34375 L 4.671875 -9.5 L 5.21875 -9.5 C 6.15625 -8.101562 7.347656 -6.988281 8.796875 -6.15625 C 10.253906 -5.332031 11.957031 -4.921875 13.90625 -4.921875 C 15.5625 -4.921875 16.8125 -5.269531 17.65625 -5.96875 C 18.5 -6.664062 18.921875 -7.628906 18.921875 -8.859375 C 18.921875 -9.609375 18.785156 -10.234375 18.515625 -10.734375 C 18.242188 -11.234375 17.789062 -11.660156 17.15625 -12.015625 C 16.53125 -12.378906 15.679688 -12.6875 14.609375 -12.9375 L 10.578125 -13.859375 C 7.765625 -14.503906 5.664062 -15.570312 4.28125 -17.0625 C 2.894531 -18.5625 2.203125 -20.507812 2.203125 -22.90625 C 2.203125 -24.675781 2.644531 -26.234375 3.53125 -27.578125 C 4.425781 -28.921875 5.71875 -29.960938 7.40625 -30.703125 C 9.101562 -31.453125 11.132812 -31.828125 13.5 -31.828125 C 15.914062 -31.828125 17.984375 -31.507812 19.703125 -30.875 C 21.429688 -30.238281 22.890625 -29.257812 24.078125 -27.9375 L 21.015625 -23.734375 L 20.46875 -23.734375 C 19.582031 -24.660156 18.566406 -25.359375 17.421875 -25.828125 C 16.273438 -26.296875 14.96875 -26.53125 13.5 -26.53125 C 11.800781 -26.53125 10.503906 -26.226562 9.609375 -25.625 C 8.722656 -25.019531 8.28125 -24.191406 8.28125 -23.140625 C 8.28125 -22.148438 8.59375 -21.359375 9.21875 -20.765625 C 9.84375 -20.179688 10.921875 -19.726562 12.453125 -19.40625 L 16.5625 -18.546875 C 19.613281 -17.898438 21.828125 -16.804688 23.203125 -15.265625 C 24.578125 -13.734375 25.265625 -11.726562 25.265625 -9.25 C 25.265625 -7.289062 24.84375 -5.582031 24 -4.125 C 23.15625 -2.675781 21.878906 -1.550781 20.171875 -0.75 C 18.472656 0.0507812 16.382812 0.453125 13.90625 0.453125 Z M 13.90625 0.453125 "/></g></g></g><g fill="#ffffff" fill-opacity="1"><g transform="translate(413.412744, 93.460697)"><g><path d="M 9.234375 0.453125 C 7.710938 0.453125 6.394531 0.175781 5.28125 -0.375 C 4.164062 -0.9375 3.304688 -1.757812 2.703125 -2.84375 C 2.097656 -3.925781 1.796875 -5.222656 1.796875 -6.734375 C 1.796875 -8.140625 2.097656 -9.316406 2.703125 -10.265625 C 3.304688 -11.222656 4.234375 -12.003906 5.484375 -12.609375 C 6.742188 -13.210938 8.394531 -13.679688 10.4375 -14.015625 C 11.851562 -14.242188 12.925781 -14.492188 13.65625 -14.765625 C 14.394531 -15.035156 14.890625 -15.34375 15.140625 -15.6875 C 15.398438 -16.03125 15.53125 -16.46875 15.53125 -17 C 15.53125 -17.757812 15.265625 -18.335938 14.734375 -18.734375 C 14.210938 -19.140625 13.335938 -19.34375 12.109375 -19.34375 C 10.785156 -19.34375 9.53125 -19.046875 8.34375 -18.453125 C 7.15625 -17.867188 6.128906 -17.097656 5.265625 -16.140625 L 4.828125 -16.140625 L 2.34375 -19.890625 C 3.539062 -21.222656 5.003906 -22.257812 6.734375 -23 C 8.460938 -23.75 10.351562 -24.125 12.40625 -24.125 C 15.539062 -24.125 17.804688 -23.457031 19.203125 -22.125 C 20.609375 -20.789062 21.3125 -18.90625 21.3125 -16.46875 L 21.3125 -6.1875 C 21.3125 -5.125 21.773438 -4.59375 22.703125 -4.59375 C 23.066406 -4.59375 23.421875 -4.65625 23.765625 -4.78125 L 24.0625 -4.703125 L 24.484375 -0.5625 C 24.160156 -0.34375 23.703125 -0.164062 23.109375 -0.03125 C 22.523438 0.101562 21.882812 0.171875 21.1875 0.171875 C 19.769531 0.171875 18.660156 -0.0976562 17.859375 -0.640625 C 17.066406 -1.179688 16.5 -2.035156 16.15625 -3.203125 L 15.703125 -3.234375 C 14.546875 -0.773438 12.390625 0.453125 9.234375 0.453125 Z M 11.109375 -3.984375 C 12.484375 -3.984375 13.582031 -4.445312 14.40625 -5.375 C 15.226562 -6.300781 15.640625 -7.585938 15.640625 -9.234375 L 15.640625 -11.625 L 15.234375 -11.71875 C 14.878906 -11.425781 14.410156 -11.179688 13.828125 -10.984375 C 13.253906 -10.796875 12.421875 -10.613281 11.328125 -10.4375 C 10.046875 -10.21875 9.117188 -9.847656 8.546875 -9.328125 C 7.984375 -8.804688 7.703125 -8.066406 7.703125 -7.109375 C 7.703125 -6.085938 8 -5.3125 8.59375 -4.78125 C 9.195312 -4.25 10.035156 -3.984375 11.109375 -3.984375 Z M 11.109375 -3.984375 "/></g></g></g><g fill="#ffffff" fill-opacity="1"><g transform="translate(438.371066, 93.460697)"><g><path d="M 9.828125 0.453125 C 7.691406 0.453125 6.0625 -0.117188 4.9375 -1.265625 C 3.820312 -2.421875 3.265625 -4.175781 3.265625 -6.53125 L 3.265625 -33.171875 L 9.203125 -33.171875 L 9.203125 -6.765625 C 9.203125 -5.316406 9.804688 -4.59375 11.015625 -4.59375 C 11.359375 -4.59375 11.722656 -4.648438 12.109375 -4.765625 L 12.40625 -4.671875 L 12.9375 -0.109375 C 12.613281 0.0664062 12.175781 0.203125 11.625 0.296875 C 11.082031 0.398438 10.484375 0.453125 9.828125 0.453125 Z M 9.828125 0.453125 "/></g></g></g><g fill="#ffffff" fill-opacity="1"><g transform="translate(451.976893, 93.460697)"><g><path d="M 13.75 0.453125 C 11.4375 0.453125 9.398438 -0.0195312 7.640625 -0.96875 C 5.890625 -1.925781 4.53125 -3.320312 3.5625 -5.15625 C 2.601562 -7 2.125 -9.222656 2.125 -11.828125 C 2.125 -14.429688 2.601562 -16.65625 3.5625 -18.5 C 4.53125 -20.34375 5.890625 -21.738281 7.640625 -22.6875 C 9.398438 -23.644531 11.4375 -24.125 13.75 -24.125 C 16.070312 -24.125 18.109375 -23.644531 19.859375 -22.6875 C 21.609375 -21.738281 22.96875 -20.34375 23.9375 -18.5 C 24.914062 -16.65625 25.40625 -14.429688 25.40625 -11.828125 C 25.40625 -9.222656 24.914062 -7 23.9375 -5.15625 C 22.96875 -3.320312 21.609375 -1.925781 19.859375 -0.96875 C 18.109375 -0.0195312 16.070312 0.453125 13.75 0.453125 Z M 13.75 -4.59375 C 17.425781 -4.59375 19.265625 -7.003906 19.265625 -11.828125 C 19.265625 -14.328125 18.789062 -16.160156 17.84375 -17.328125 C 16.90625 -18.492188 15.539062 -19.078125 13.75 -19.078125 C 10.070312 -19.078125 8.234375 -16.660156 8.234375 -11.828125 C 8.234375 -7.003906 10.070312 -4.59375 13.75 -4.59375 Z M 13.75 -4.59375 "/></g></g></g><g fill="#ffffff" fill-opacity="1"><g transform="translate(479.48899, 93.460697)"><g><path d="M 3.40625 0 L 3.40625 -23.671875 L 9.125 -23.671875 L 9.125 -20.1875 L 9.578125 -20.09375 C 11.046875 -22.78125 13.429688 -24.125 16.734375 -24.125 C 19.472656 -24.125 21.484375 -23.378906 22.765625 -21.890625 C 24.046875 -20.398438 24.6875 -18.234375 24.6875 -15.390625 L 24.6875 0 L 18.734375 0 L 18.734375 -14.65625 C 18.734375 -16.226562 18.414062 -17.359375 17.78125 -18.046875 C 17.15625 -18.742188 16.148438 -19.09375 14.765625 -19.09375 C 13.066406 -19.09375 11.738281 -18.539062 10.78125 -17.4375 C 9.832031 -16.34375 9.359375 -14.613281 9.359375 -12.25 L 9.359375 0 Z M 3.40625 0 "/></g></g></g><g fill="#ffffff" fill-opacity="1"><g transform="translate(507.21569, 93.460697)"><g/></g></g><g fill="#ffffff" fill-opacity="1"><g transform="translate(517.581012, 93.460697)"><g><path d="M 12.828125 0.453125 C 10.554688 0.453125 8.566406 0.0664062 6.859375 -0.703125 C 5.160156 -1.472656 3.847656 -2.578125 2.921875 -4.015625 C 2.003906 -5.460938 1.546875 -7.144531 1.546875 -9.0625 C 1.546875 -11.113281 2.0625 -12.820312 3.09375 -14.1875 C 4.125 -15.5625 5.675781 -16.6875 7.75 -17.5625 L 7.796875 -18 C 6.847656 -19.164062 6.164062 -20.238281 5.75 -21.21875 C 5.332031 -22.195312 5.125 -23.269531 5.125 -24.4375 C 5.125 -25.882812 5.46875 -27.164062 6.15625 -28.28125 C 6.84375 -29.394531 7.835938 -30.265625 9.140625 -30.890625 C 10.453125 -31.515625 12.015625 -31.828125 13.828125 -31.828125 C 15.535156 -31.828125 17 -31.539062 18.21875 -30.96875 C 19.445312 -30.394531 20.382812 -29.597656 21.03125 -28.578125 C 21.675781 -27.566406 22 -26.394531 22 -25.0625 C 22 -23.28125 21.460938 -21.726562 20.390625 -20.40625 C 19.328125 -19.09375 17.675781 -18.003906 15.4375 -17.140625 L 15.390625 -16.703125 L 21.1875 -9.03125 C 21.53125 -9.78125 21.769531 -10.632812 21.90625 -11.59375 C 22.039062 -12.5625 22.109375 -13.65625 22.109375 -14.875 L 22.078125 -15.96875 L 27.109375 -15.96875 C 27.109375 -11.5625 26.242188 -8 24.515625 -5.28125 C 24.867188 -4.988281 25.175781 -4.785156 25.4375 -4.671875 C 25.707031 -4.554688 26 -4.5 26.3125 -4.5 C 26.613281 -4.5 26.859375 -4.515625 27.046875 -4.546875 C 27.234375 -4.578125 27.4375 -4.628906 27.65625 -4.703125 L 27.984375 -4.609375 L 28.734375 -0.296875 C 28.460938 -0.109375 28.078125 0.03125 27.578125 0.125 C 27.078125 0.226562 26.519531 0.28125 25.90625 0.28125 C 24.863281 0.28125 23.941406 0.109375 23.140625 -0.234375 C 22.347656 -0.578125 21.59375 -1.109375 20.875 -1.828125 L 20.4375 -1.828125 C 18.65625 -0.304688 16.117188 0.453125 12.828125 0.453125 Z M 12.8125 -20.109375 C 14.144531 -20.765625 15.109375 -21.429688 15.703125 -22.109375 C 16.304688 -22.796875 16.609375 -23.644531 16.609375 -24.65625 C 16.609375 -25.539062 16.347656 -26.222656 15.828125 -26.703125 C 15.316406 -27.179688 14.625 -27.421875 13.75 -27.421875 C 12.863281 -27.421875 12.148438 -27.160156 11.609375 -26.640625 C 11.078125 -26.128906 10.8125 -25.425781 10.8125 -24.53125 C 10.8125 -23.84375 10.953125 -23.191406 11.234375 -22.578125 C 11.523438 -21.972656 12.050781 -21.148438 12.8125 -20.109375 Z M 13.578125 -4.65625 C 14.953125 -4.65625 16.128906 -4.921875 17.109375 -5.453125 L 10.125 -14.34375 C 9.300781 -13.789062 8.691406 -13.144531 8.296875 -12.40625 C 7.898438 -11.675781 7.703125 -10.8125 7.703125 -9.8125 C 7.703125 -8.78125 7.941406 -7.875 8.421875 -7.09375 C 8.898438 -6.3125 9.582031 -5.707031 10.46875 -5.28125 C 11.351562 -4.863281 12.390625 -4.65625 13.578125 -4.65625 Z M 13.578125 -4.65625 "/></g></g></g><g fill="#ffffff" fill-opacity="1"><g transform="translate(546.895774, 93.460697)"><g/></g></g><g fill="#ffffff" fill-opacity="1"><g transform="translate(557.261096, 93.460697)"><g><path d="M 13.90625 0.453125 C 11.726562 0.453125 9.789062 0.1875 8.09375 -0.34375 C 6.40625 -0.882812 4.992188 -1.59375 3.859375 -2.46875 C 2.734375 -3.34375 1.867188 -4.300781 1.265625 -5.34375 L 4.671875 -9.5 L 5.21875 -9.5 C 6.15625 -8.101562 7.347656 -6.988281 8.796875 -6.15625 C 10.253906 -5.332031 11.957031 -4.921875 13.90625 -4.921875 C 15.5625 -4.921875 16.8125 -5.269531 17.65625 -5.96875 C 18.5 -6.664062 18.921875 -7.628906 18.921875 -8.859375 C 18.921875 -9.609375 18.785156 -10.234375 18.515625 -10.734375 C 18.242188 -11.234375 17.789062 -11.660156 17.15625 -12.015625 C 16.53125 -12.378906 15.679688 -12.6875 14.609375 -12.9375 L 10.578125 -13.859375 C 7.765625 -14.503906 5.664062 -15.570312 4.28125 -17.0625 C 2.894531 -18.5625 2.203125 -20.507812 2.203125 -22.90625 C 2.203125 -24.675781 2.644531 -26.234375 3.53125 -27.578125 C 4.425781 -28.921875 5.71875 -29.960938 7.40625 -30.703125 C 9.101562 -31.453125 11.132812 -31.828125 13.5 -31.828125 C 15.914062 -31.828125 17.984375 -31.507812 19.703125 -30.875 C 21.429688 -30.238281 22.890625 -29.257812 24.078125 -27.9375 L 21.015625 -23.734375 L 20.46875 -23.734375 C 19.582031 -24.660156 18.566406 -25.359375 17.421875 -25.828125 C 16.273438 -26.296875 14.96875 -26.53125 13.5 -26.53125 C 11.800781 -26.53125 10.503906 -26.226562 9.609375 -25.625 C 8.722656 -25.019531 8.28125 -24.191406 8.28125 -23.140625 C 8.28125 -22.148438 8.59375 -21.359375 9.21875 -20.765625 C 9.84375 -20.179688 10.921875 -19.726562 12.453125 -19.40625 L 16.5625 -18.546875 C 19.613281 -17.898438 21.828125 -16.804688 23.203125 -15.265625 C 24.578125 -13.734375 25.265625 -11.726562 25.265625 -9.25 C 25.265625 -7.289062 24.84375 -5.582031 24 -4.125 C 23.15625 -2.675781 21.878906 -1.550781 20.171875 -0.75 C 18.472656 0.0507812 16.382812 0.453125 13.90625 0.453125 Z M 13.90625 0.453125 "/></g></g></g><g fill="#ffffff" fill-opacity="1"><g transform="translate(584.215237, 93.460697)"><g><path d="M 3.40625 9.59375 L 3.40625 -23.671875 L 9.359375 -23.671875 L 9.359375 -20.578125 L 9.8125 -20.5 C 10.507812 -21.695312 11.441406 -22.597656 12.609375 -23.203125 C 13.785156 -23.816406 15.160156 -24.125 16.734375 -24.125 C 18.640625 -24.125 20.300781 -23.671875 21.71875 -22.765625 C 23.144531 -21.867188 24.253906 -20.5 25.046875 -18.65625 C 25.847656 -16.820312 26.25 -14.546875 26.25 -11.828125 C 26.25 -9.117188 25.828125 -6.847656 24.984375 -5.015625 C 24.148438 -3.191406 22.988281 -1.820312 21.5 -0.90625 C 20.007812 0 18.296875 0.453125 16.359375 0.453125 C 14.878906 0.453125 13.601562 0.207031 12.53125 -0.28125 C 11.457031 -0.78125 10.550781 -1.550781 9.8125 -2.59375 L 9.359375 -2.515625 L 9.359375 9.59375 Z M 14.703125 -4.59375 C 16.472656 -4.59375 17.816406 -5.171875 18.734375 -6.328125 C 19.648438 -7.484375 20.109375 -9.316406 20.109375 -11.828125 C 20.109375 -14.328125 19.648438 -16.160156 18.734375 -17.328125 C 17.816406 -18.492188 16.472656 -19.078125 14.703125 -19.078125 C 13.046875 -19.078125 11.726562 -18.472656 10.75 -17.265625 C 9.78125 -16.066406 9.296875 -14.253906 9.296875 -11.828125 C 9.296875 -9.410156 9.78125 -7.597656 10.75 -6.390625 C 11.726562 -5.191406 13.046875 -4.59375 14.703125 -4.59375 Z M 14.703125 -4.59375 "/></g></g></g><g fill="#ffffff" fill-opacity="1"><g transform="translate(612.564275, 93.460697)"><g><path d="M 9.234375 0.453125 C 7.710938 0.453125 6.394531 0.175781 5.28125 -0.375 C 4.164062 -0.9375 3.304688 -1.757812 2.703125 -2.84375 C 2.097656 -3.925781 1.796875 -5.222656 1.796875 -6.734375 C 1.796875 -8.140625 2.097656 -9.316406 2.703125 -10.265625 C 3.304688 -11.222656 4.234375 -12.003906 5.484375 -12.609375 C 6.742188 -13.210938 8.394531 -13.679688 10.4375 -14.015625 C 11.851562 -14.242188 12.925781 -14.492188 13.65625 -14.765625 C 14.394531 -15.035156 14.890625 -15.34375 15.140625 -15.6875 C 15.398438 -16.03125 15.53125 -16.46875 15.53125 -17 C 15.53125 -17.757812 15.265625 -18.335938 14.734375 -18.734375 C 14.210938 -19.140625 13.335938 -19.34375 12.109375 -19.34375 C 10.785156 -19.34375 9.53125 -19.046875 8.34375 -18.453125 C 7.15625 -17.867188 6.128906 -17.097656 5.265625 -16.140625 L 4.828125 -16.140625 L 2.34375 -19.890625 C 3.539062 -21.222656 5.003906 -22.257812 6.734375 -23 C 8.460938 -23.75 10.351562 -24.125 12.40625 -24.125 C 15.539062 -24.125 17.804688 -23.457031 19.203125 -22.125 C 20.609375 -20.789062 21.3125 -18.90625 21.3125 -16.46875 L 21.3125 -6.1875 C 21.3125 -5.125 21.773438 -4.59375 22.703125 -4.59375 C 23.066406 -4.59375 23.421875 -4.65625 23.765625 -4.78125 L 24.0625 -4.703125 L 24.484375 -0.5625 C 24.160156 -0.34375 23.703125 -0.164062 23.109375 -0.03125 C 22.523438 0.101562 21.882812 0.171875 21.1875 0.171875 C 19.769531 0.171875 18.660156 -0.0976562 17.859375 -0.640625 C 17.066406 -1.179688 16.5 -2.035156 16.15625 -3.203125 L 15.703125 -3.234375 C 14.546875 -0.773438 12.390625 0.453125 9.234375 0.453125 Z M 11.109375 -3.984375 C 12.484375 -3.984375 13.582031 -4.445312 14.40625 -5.375 C 15.226562 -6.300781 15.640625 -7.585938 15.640625 -9.234375 L 15.640625 -11.625 L 15.234375 -11.71875 C 14.878906 -11.425781 14.410156 -11.179688 13.828125 -10.984375 C 13.253906 -10.796875 12.421875 -10.613281 11.328125 -10.4375 C 10.046875 -10.21875 9.117188 -9.847656 8.546875 -9.328125 C 7.984375 -8.804688 7.703125 -8.066406 7.703125 -7.109375 C 7.703125 -6.085938 8 -5.3125 8.59375 -4.78125 C 9.195312 -4.25 10.035156 -3.984375 11.109375 -3.984375 Z M 11.109375 -3.984375 "/></g></g></g><g clip-path="url(#559b3dfcf7)"><g clip-path="url(#53a6e63993)"><path fill="#ffffff" d="M 707.492188 543.613281 L 733.566406 543.613281 L 733.566406 576.410156 L 707.492188 576.410156 Z M 707.492188 543.613281 " fill-opacity="1" fill-rule="nonzero"/></g></g><g clip-path="url(#a0c56ee70e)"><g clip-path="url(#48ce55cd2b)"><path fill="#ffffff" d="M 279.945312 542.488281 L 312.3125 542.488281 L 312.3125 574.984375 L 279.945312 574.984375 Z M 279.945312 542.488281 " fill-opacity="1" fill-rule="nonzero"/></g></g><g clip-path="url(#8036dd5b88)"><g clip-path="url(#f82cf6d097)"><path fill="#ffffff" d="M 283.914062 541.0625 L 303.472656 541.0625 L 303.472656 573.378906 L 283.914062 573.378906 Z M 283.914062 541.0625 " fill-opacity="1" fill-rule="nonzero"/></g></g><g clip-path="url(#36ce0bda9b)"><g clip-path="url(#637a42c563)"><path fill="#ffffff" d="M 720.003906 543.386719 L 733.191406 543.386719 L 733.191406 564.351562 L 720.003906 564.351562 Z M 720.003906 543.386719 " fill-opacity="1" fill-rule="nonzero"/></g></g><g clip-path="url(#cf2ad856f3)"><g clip-path="url(#fbc643d1d4)"><path fill="#ffffff" d="M 722.777344 544.886719 L 734.390625 544.886719 L 734.390625 559.628906 L 722.777344 559.628906 Z M 722.777344 544.886719 " fill-opacity="1" fill-rule="nonzero"/></g></g><g clip-path="url(#570eec2fc7)"><g clip-path="url(#55b4d86858)"><path fill="#ffffff" d="M 708.164062 544.210938 L 732.59375 544.210938 L 732.59375 574.269531 L 708.164062 574.269531 Z M 708.164062 544.210938 " fill-opacity="1" fill-rule="nonzero"/></g></g><g clip-path="url(#fc9041a3b2)"><g clip-path="url(#7d68d9f6c2)"><path fill="#ffffff" d="M 724.5 147.683594 L 750.5 147.683594 L 750.5 190.34375 L 724.5 190.34375 Z M 724.5 147.683594 " fill-opacity="1" fill-rule="nonzero"/></g></g><g clip-path="url(#f0095b7b15)"><g clip-path="url(#d33b5524d2)"><path fill="#ffffff" d="M 716.707031 112.617188 L 738.734375 112.617188 L 738.734375 138.949219 L 716.707031 138.949219 Z M 716.707031 112.617188 " fill-opacity="1" fill-rule="nonzero"/></g></g><g clip-path="url(#c1d5ec2470)"><g clip-path="url(#bba984d71e)"><path fill="#ffffff" d="M 289.085938 112.542969 L 299.207031 112.542969 L 299.207031 122.359375 L 289.085938 122.359375 Z M 289.085938 112.542969 " fill-opacity="1" fill-rule="nonzero"/></g></g><g clip-path="url(#f3b83eefe5)"><g clip-path="url(#8239719216)"><path fill="#ffffff" d="M 281.367188 112.394531 L 301.824219 112.394531 L 301.824219 138.363281 L 281.367188 138.363281 Z M 281.367188 112.394531 " fill-opacity="1" fill-rule="nonzero"/></g></g><g clip-path="url(#db0336bac9)"><g clip-path="url(#1f9ff57b17)"><path fill="#ffffff" d="M 709.0625 557.699219 L 728.792969 557.699219 L 728.792969 573.433594 L 709.0625 573.433594 Z M 709.0625 557.699219 " fill-opacity="1" fill-rule="nonzero"/></g></g><g clip-path="url(#eeb5fc1f14)"><g clip-path="url(#fc96de4071)"><path fill="#ffffff" d="M 708.765625 559.648438 L 726.898438 559.648438 L 726.898438 572.757812 L 708.765625 572.757812 Z M 708.765625 559.648438 " fill-opacity="1" fill-rule="nonzero"/></g></g><g clip-path="url(#259e6e8449)"><g clip-path="url(#aea0bd2a61)"><path fill="#ffffff" d="M 713.109375 559.421875 L 727.566406 559.421875 L 727.566406 572.011719 L 713.109375 572.011719 Z M 713.109375 559.421875 " fill-opacity="1" fill-rule="nonzero"/></g></g><g clip-path="url(#f3f2de8926)"><g clip-path="url(#4f7f1d1228)"><path fill="#ffffff" d="M 283.015625 112.695312 L 301.019531 112.695312 L 301.019531 127.753906 L 283.015625 127.753906 Z M 283.015625 112.695312 " fill-opacity="1" fill-rule="nonzero"/></g></g><g clip-path="url(#922ab42ac8)"><g clip-path="url(#a16b65368a)"><path fill="#ffffff" d="M 713.410156 110.746094 L 736.40625 110.746094 L 736.40625 130.976562 L 713.410156 130.976562 Z M 713.410156 110.746094 " fill-opacity="1" fill-rule="nonzero"/></g></g><g clip-path="url(#4307c3962c)"><g clip-path="url(#e85f8cc3ec)"><path fill="#ffffff" d="M 280.167969 120.785156 L 290.292969 120.785156 L 290.292969 130.601562 L 280.167969 130.601562 Z M 280.167969 120.785156 " fill-opacity="1" fill-rule="nonzero"/></g></g><g clip-path="url(#5f16c4c2d1)"><g clip-path="url(#17d945bd48)"><path fill="#ffffff" d="M 280.167969 112.09375 L 306.21875 112.09375 L 306.21875 130.828125 L 280.167969 130.828125 Z M 280.167969 112.09375 " fill-opacity="1" fill-rule="nonzero"/></g></g><g clip-path="url(#b58eda3056)"><g clip-path="url(#133d528438)"><path fill="#ffffff" d="M 285.9375 112.242188 L 306.089844 112.242188 L 306.089844 123.707031 L 285.9375 123.707031 Z M 285.9375 112.242188 " fill-opacity="1" fill-rule="nonzero"/></g></g><g clip-path="url(#74424345fc)"><g clip-path="url(#f5fe35ab4f)"><path fill="#ffffff" d="M 281.144531 113.667969 L 301.769531 113.667969 L 301.769531 133.222656 L 281.144531 133.222656 Z M 281.144531 113.667969 " fill-opacity="1" fill-rule="nonzero"/></g></g><g clip-path="url(#e3579a01dd)"><g clip-path="url(#8178faee21)"><path fill="#ffffff" d="M 703.070312 154.878906 L 713.191406 154.878906 L 713.191406 164.695312 L 703.070312 164.695312 Z M 703.070312 154.878906 " fill-opacity="1" fill-rule="nonzero"/></g></g><g clip-path="url(#48b8c447b4)"><g clip-path="url(#545194a060)"><path fill="#ffffff" d="M 703.96875 152.855469 L 722.851562 152.855469 L 722.851562 171.886719 L 703.96875 171.886719 Z M 703.96875 152.855469 " fill-opacity="1" fill-rule="nonzero"/></g></g><g clip-path="url(#ae9221d752)"><g clip-path="url(#2a48ad09f8)"><path fill="#ffffff" d="M 696.476562 149.183594 L 724.320312 149.183594 L 724.320312 172.785156 L 696.476562 172.785156 Z M 696.476562 149.183594 " fill-opacity="1" fill-rule="nonzero"/></g></g><g clip-path="url(#c363e04e9e)"><g clip-path="url(#46b3e8eb4e)"><path fill="#4b4e5b" d="M 721.054688 151.132812 L 743.308594 151.132812 L 743.308594 188.339844 L 721.054688 188.339844 Z M 721.054688 151.132812 " fill-opacity="1" fill-rule="nonzero"/></g></g><g clip-path="url(#8bef419eb2)"><g clip-path="url(#50a69254ce)"><path fill="#4b4e5b" d="M 717.605469 143.714844 L 731.917969 143.714844 L 731.917969 161.828125 L 717.605469 161.828125 Z M 717.605469 143.714844 " fill-opacity="1" fill-rule="nonzero"/></g></g><g clip-path="url(#cf6ce84d06)"><g clip-path="url(#973f5f30f2)"><path fill="#4b4e5b" d="M 717.304688 140.265625 L 737.460938 140.265625 L 737.460938 173.570312 L 717.304688 173.570312 Z M 717.304688 140.265625 " fill-opacity="1" fill-rule="nonzero"/></g></g><g clip-path="url(#d8bf25c803)"><g clip-path="url(#41af981c8f)"><path fill="#4b4e5b" d="M 463.371094 477.074219 L 473.492188 477.074219 L 473.492188 486.890625 L 463.371094 486.890625 Z M 463.371094 477.074219 " fill-opacity="1" fill-rule="nonzero"/></g></g><g clip-path="url(#c1690377e9)"><g clip-path="url(#b11e294f01)"><path fill="#4b4e5b" d="M 449.734375 428.820312 L 459.855469 428.820312 L 459.855469 438.636719 L 449.734375 438.636719 Z M 449.734375 428.820312 " fill-opacity="1" fill-rule="nonzero"/></g></g></svg>